<?xml version="1.0" encoding="UTF-8"?>
<svg version="1.1" xmlns="http://www.w3.org/2000/svg" width="512" height="512">
<path d="M0 0 C168.96 0 337.92 0 512 0 C512 168.96 512 337.92 512 512 C343.04 512 174.08 512 0 512 C0 343.04 0 174.08 0 0 Z " fill="#FE8211" transform="translate(0,0)"/>
<path d="M0 0 C168.96 0 337.92 0 512 0 C512 168.96 512 337.92 512 512 C343.04 512 174.08 512 0 512 C0 343.04 0 174.08 0 0 Z M61 61 C55.59394704 69.22170555 53.89044722 76.65175078 53.84178162 86.39190674 C53.8368424 87.117153 53.83190318 87.84239926 53.82681429 88.58962268 C53.81148265 91.01710308 53.80308 93.44455677 53.79467773 95.87207031 C53.78509994 97.6260427 53.77510894 99.38001287 53.76473904 101.13398075 C53.7376239 105.93652644 53.71665093 110.7390821 53.69676542 115.54166245 C53.67447621 120.67998867 53.64663598 125.81828541 53.61965942 130.95658875 C53.55657353 143.23412089 53.50310249 155.51168682 53.45193338 167.78927374 C53.437548 171.23849001 53.42299194 174.68770553 53.40839767 178.13692093 C53.32004745 199.07026894 53.23505871 220.00362862 53.15950012 240.93702698 C53.07661122 263.77319503 52.98139195 286.60910778 52.84249532 309.44500995 C52.7483922 324.92854835 52.67336625 340.41205201 52.62155628 355.89579201 C52.59032569 365.02910972 52.5420171 374.16199153 52.4709847 383.29508799 C52.42461311 389.47805871 52.40036451 395.66086499 52.39389586 401.84400541 C52.3895967 405.35982105 52.3759395 408.87487967 52.33520889 412.39047813 C52.29651913 416.16831667 52.29512478 419.94442457 52.30297852 423.72241211 C52.28297507 424.80082493 52.26297163 425.87923775 52.24236202 426.99032974 C52.32445926 435.61363861 54.82273531 443.76199518 61.00997257 450.03919888 C67.91998036 455.68309583 76.33550107 458.10642022 85.13691711 458.15821838 C86.40367342 458.16800846 87.67042973 458.17779854 88.97557259 458.18788528 C90.38386113 458.19379751 91.7921501 458.19960611 93.20043945 458.20532227 C94.69398698 458.21490907 96.1875319 458.22490872 97.68107414 458.23528671 C101.78914198 458.2625083 105.89722138 458.28346516 110.0053308 458.30327249 C113.52409891 458.32099317 117.04284213 458.3422451 120.56159025 458.36352271 C132.1375281 458.4334762 143.71351322 458.49156116 155.28952503 458.54769325 C159.30465711 458.56735966 163.31978498 458.58781729 167.33491302 458.60829079 C196.81592251 458.75842995 226.29700666 458.88191801 255.77820492 458.98834324 C258.99172697 458.99997007 262.20524842 459.01175079 265.41876984 459.02355194 C290.16573234 459.1139638 314.91265482 459.18857205 339.65976429 459.22300434 C341.61313185 459.22572351 343.5664994 459.2284456 345.51986694 459.23117065 C346.96092085 459.2331637 346.96092085 459.2331637 348.43108696 459.23519701 C355.19200675 459.24525095 361.95288119 459.2629068 368.71377563 459.28372192 C376.9512952 459.30891049 385.18874795 459.32335382 393.4263075 459.32383865 C397.6220591 459.32432306 401.81766056 459.32946998 406.01337624 459.34760094 C409.85449006 459.36401871 413.69535038 459.36631437 417.53648698 459.35758102 C419.57460798 459.35648931 421.61272067 459.37012435 423.65079212 459.38437748 C432.86776449 459.34247732 441.87446115 458.49034646 449.3984375 452.66015625 C455.39307865 446.44619897 458.07430043 439.50281003 458.30962563 431.02866554 C458.34006874 429.97637742 458.34006874 429.97637742 458.37112688 428.90283094 C458.43623497 426.58194676 458.49381616 424.26095548 458.55044556 421.93984985 C458.57134045 421.13625123 458.59223534 420.33265262 458.61376341 419.50470252 C459.03907195 403.08248218 459.16822401 386.66514792 459.18936086 370.23812747 C459.19549858 366.25897357 459.20705355 362.27983375 459.21765137 358.3006897 C459.24171384 348.79094086 459.256701 339.2811876 459.26971143 329.77141804 C459.27344759 327.07866683 459.27741827 324.38591606 459.2814641 321.6931653 C459.30664571 304.8833566 459.32864213 288.07354665 459.34119225 271.26372337 C459.34412042 267.40807466 459.3470824 263.55242599 459.35009766 259.69677734 C459.35121673 258.25986661 459.35121673 258.25986661 459.35235842 256.79392739 C459.36507864 241.19272191 459.39842635 225.59162859 459.43989949 209.99047582 C459.4823185 193.90017058 459.50588415 177.80992317 459.51111281 161.71956217 C459.51451893 152.71336818 459.52618687 143.70735233 459.55921555 134.70121384 C459.58721153 127.05703567 459.59821528 119.41307263 459.58702008 111.76884715 C459.58183956 107.87462349 459.58468292 103.98085075 459.60948563 100.08669281 C459.63202402 96.51850369 459.63120419 92.95108839 459.61228175 89.38288529 C459.60817264 87.49113915 459.62858908 85.59938792 459.65006864 83.70775926 C459.57070222 75.147496 457.95747389 68.26586925 452.01018751 61.85512674 C445.60085256 55.76048355 439.38088091 53.55050825 430.61322021 53.57060242 C429.79166813 53.56071106 428.97011604 53.55081971 428.12366843 53.54062861 C425.37110988 53.51123086 422.61890848 53.50301392 419.86621094 53.49487305 C417.87256121 53.47838262 415.87892121 53.46067888 413.88529205 53.44186592 C408.40935912 53.39432584 402.93347278 53.36600522 397.4573946 53.34143662 C392.76978929 53.31819731 388.08228359 53.28430049 383.39474368 53.25059503 C366.59664099 53.13072319 349.79840566 53.05901398 333 53 C331.99801819 52.99643594 331.99801819 52.99643594 330.97579432 52.99279988 C295.3472506 52.86626567 259.71877867 52.81330887 224.09001923 52.81440926 C223.03231207 52.81444162 223.03231207 52.81444162 221.95323709 52.81447463 C221.2474143 52.81449842 220.54159152 52.8145222 219.81438017 52.8145467 C218.75461475 52.81458235 218.75461475 52.81458235 217.67343992 52.81461872 C216.24474317 52.81467109 214.81604642 52.81473471 213.38734967 52.81480955 C201.65840756 52.81523245 189.92949612 52.80538488 178.20056298 52.7915589 C165.93202143 52.77721605 153.66349505 52.7702854 141.39494491 52.77115268 C134.59322108 52.77148208 127.79153078 52.76883933 120.98981476 52.75797462 C114.68809293 52.74834306 108.38644298 52.74817988 102.0847187 52.75549126 C99.78119108 52.75653877 97.47765899 52.75416439 95.17413902 52.7481308 C92.03765823 52.74044126 88.90142878 52.74503304 85.76495361 52.75276184 C84.85476164 52.74761828 83.94456967 52.74247471 83.00679612 52.73717529 C74.45587355 52.78388891 67.3467335 55.08393771 61 61 Z " fill="#FEFEFE" transform="translate(0,0)"/>
<path d="M0 0 C0.9853052 -0.00155999 1.97061039 -0.00311998 2.98577332 -0.00472724 C6.29548266 -0.00872186 9.60514626 -0.00555256 12.91485596 -0.00241089 C15.29019701 -0.00376641 17.66553785 -0.00554719 20.0408783 -0.00772095 C25.85132252 -0.01182221 31.66175228 -0.01119691 37.47219697 -0.00830831 C42.24908707 -0.00603516 47.02597359 -0.00575005 51.80286407 -0.00683212 C52.48744834 -0.00698536 53.17203261 -0.00713859 53.87736185 -0.00729647 C55.26998725 -0.00761633 56.66261264 -0.00794055 58.05523804 -0.00826906 C71.16656004 -0.01112943 84.27787509 -0.00783833 97.38919595 -0.00246869 C108.40930896 0.00190828 119.42941116 0.00125785 130.44952393 -0.00338745 C201.73691949 -0.0326553 273.01219125 0.17480739 344.29473877 1.12698364 C344.29473877 1.45698364 344.29473877 1.78698364 344.29473877 2.12698364 C343.73786377 2.26233521 343.18098877 2.39768677 342.60723877 2.53713989 C335.48151877 4.54726699 330.20205391 7.92566118 325.94317627 14.08010864 C324.00698146 17.61819124 323.19688226 20.35049672 323.10723877 24.37698364 C322.29473877 28.12698364 322.29473877 28.12698364 320.41583252 29.37698364 C318.81975566 30.05012314 317.20653848 30.68383668 315.57989502 31.27932739 C310.58521632 33.13205436 307.58689047 36.39775933 305.07598877 41.04495239 C303.61571324 44.93658669 303.46064372 49.00424561 303.29473877 53.12698364 C302.71466064 53.21335083 302.13458252 53.29971802 301.53692627 53.38870239 C295.85563605 54.41058463 292.35465718 55.78381511 288.29473877 60.12698364 C282.72095221 69.92076187 282.72095221 69.92076187 283.29473877 90.12698364 C209.04473877 90.12698364 134.79473877 90.12698364 58.29473877 90.12698364 C58.34114502 107.86448364 58.38755127 125.60198364 58.43536377 143.87698364 C58.45579575 155.09703805 58.47521649 166.31707901 58.49005127 177.53713989 C58.4978826 183.43053227 58.50596448 189.32392422 58.51446533 195.21731567 C58.51552033 195.95594262 58.51657532 196.69456958 58.51766229 197.45557916 C58.53505318 209.37565949 58.56658492 221.29566253 58.60334995 233.21569705 C58.64077381 245.45150513 58.66297767 257.68727279 58.67109275 269.92313576 C58.67657755 277.47159431 58.69389229 285.01983448 58.72640464 292.5682258 C58.75007474 298.35917269 58.75255496 304.14998005 58.74716949 309.94096565 C58.7482699 312.31452847 58.75622594 314.68809955 58.77156067 317.06161308 C58.79148141 320.30400287 58.78666957 323.54546066 58.77575684 326.78787231 C58.7874082 327.72563381 58.79905957 328.66339531 58.811064 329.62957382 C58.75123161 336.21313428 57.46131106 341.70565857 52.88279939 346.65251446 C48.34404748 350.66737022 44.32753025 352.47171458 38.29473877 352.12698364 C38.39786377 353.40573364 38.50098877 354.68448364 38.60723877 356.00198364 C38.60723877 362.88517684 35.67076119 368.62252758 30.98223877 373.56448364 C28.29473877 375.12698364 28.29473877 375.12698364 26.34161377 375.59963989 C23.96583344 376.19358498 22.31148766 376.71568579 20.29473877 378.12698364 C18.94463689 381.04408901 18.1324754 383.94905484 17.27520752 387.04495239 C15.39535476 392.95413098 11.98505545 397.36618817 6.66973877 400.56448364 C-0.80157815 404.02342666 -9.7796171 404.84767533 -17.63494873 402.10354614 C-25.37353703 397.8461465 -29.80816345 391.35036342 -32.70526123 383.12698364 C-32.9541502 380.67371178 -32.9541502 380.67371178 -32.95249939 378.04528809 C-32.95879584 376.5320579 -32.95879584 376.5320579 -32.9652195 374.98825741 C-32.95959684 373.88467671 -32.95397419 372.78109602 -32.94818115 371.64407349 C-32.95005117 370.46318177 -32.9519212 369.28229006 -32.95384789 368.06561375 C-32.95688308 364.77343603 -32.95082011 361.48150198 -32.94085431 358.18935275 C-32.93209516 354.59732104 -32.93473754 351.00529359 -32.93571472 347.41325378 C-32.93563862 340.2843037 -32.92404596 333.15541411 -32.90834635 326.026483 C-32.89559978 320.17531059 -32.88677437 314.32414422 -32.88049316 308.47296143 C-32.85371012 284.1439807 -32.79459154 259.81514798 -32.72360992 235.48625946 C-32.70782613 230.05624681 -32.69282316 224.62623227 -32.67803699 219.19621682 C-32.59596317 189.08832175 -32.49370149 158.98055614 -32.37081105 128.87280011 C-32.33841331 120.84635238 -32.3104895 112.81989637 -32.28421021 104.79342651 C-32.25172287 94.93574561 -32.21183529 85.07812587 -32.16277212 75.22051305 C-32.13763279 70.14168662 -32.11558721 65.06289718 -32.10186577 59.98402596 C-32.08907096 55.2997252 -32.06707508 50.61555916 -32.03786623 45.93133283 C-32.02884592 44.23202371 -32.02312429 42.53269318 -32.02105081 40.83336139 C-32.00315319 28.42790518 -31.82288105 17.27400842 -23.70526123 7.12698364 C-16.18938244 0.59028624 -9.60520018 -0.02330886 0 0 Z " fill="#007BFE" transform="translate(85.70526123046875,52.873016357421875)"/>
<path d="M0 0 C74.25 0 148.5 0 225 0 C225 74.25 225 148.5 225 225 C150.75 225 76.5 225 0 225 C0 150.75 0 76.5 0 0 Z " fill="#FEFEFD" transform="translate(144,143)"/>
<path d="M0 0 C0.9853052 -0.00155999 1.97061039 -0.00311998 2.98577332 -0.00472724 C6.29548266 -0.00872186 9.60514626 -0.00555256 12.91485596 -0.00241089 C15.29019701 -0.00376641 17.66553785 -0.00554719 20.0408783 -0.00772095 C25.85132252 -0.01182221 31.66175228 -0.01119691 37.47219697 -0.00830831 C42.24908707 -0.00603516 47.02597359 -0.00575005 51.80286407 -0.00683212 C52.48744834 -0.00698536 53.17203261 -0.00713859 53.87736185 -0.00729647 C55.26998725 -0.00761633 56.66261264 -0.00794055 58.05523804 -0.00826906 C71.16656004 -0.01112943 84.27787509 -0.00783833 97.38919595 -0.00246869 C108.40930896 0.00190828 119.42941116 0.00125785 130.44952393 -0.00338745 C201.73691949 -0.0326553 273.01219125 0.17480739 344.29473877 1.12698364 C344.29473877 1.45698364 344.29473877 1.78698364 344.29473877 2.12698364 C343.73786377 2.26233521 343.18098877 2.39768677 342.60723877 2.53713989 C335.48151877 4.54726699 330.20205391 7.92566118 325.94317627 14.08010864 C324.00698146 17.61819124 323.19688226 20.35049672 323.10723877 24.37698364 C322.29473877 28.12698364 322.29473877 28.12698364 320.41583252 29.37698364 C318.81975566 30.05012314 317.20653848 30.68383668 315.57989502 31.27932739 C310.58521632 33.13205436 307.58689047 36.39775933 305.07598877 41.04495239 C303.61571324 44.93658669 303.46064372 49.00424561 303.29473877 53.12698364 C302.71466064 53.21335083 302.13458252 53.29971802 301.53692627 53.38870239 C295.85563605 54.41058463 292.35465718 55.78381511 288.29473877 60.12698364 C284.06363453 66.32070292 283.65066074 72.28947965 283.54473877 79.62698364 C283.51509033 80.64018677 283.48544189 81.65338989 283.45489502 82.69729614 C283.38480145 85.17393565 283.33180904 87.64966716 283.29473877 90.12698364 C251.85424991 90.26392308 220.41384008 90.37007447 188.9731237 90.43337562 C185.25944607 90.44087966 181.54576903 90.44864562 177.83209229 90.45657349 C177.09278062 90.45814735 176.35346895 90.45972121 175.59175389 90.46134277 C163.62820146 90.4874353 151.6648224 90.53473419 139.70137275 90.58990042 C127.42149535 90.64605259 115.14170862 90.6793454 102.8617081 90.69151461 C95.28703096 90.69973853 87.71284389 90.72569177 80.13831764 90.77448244 C74.32555852 90.81001261 68.51311191 90.81370391 62.70026588 90.80562973 C60.31904334 90.80727917 57.93780208 90.81919798 55.55669022 90.84221649 C52.30113835 90.87214222 49.0476702 90.8648669 45.79206848 90.84851074 C44.85332888 90.86598779 43.91458927 90.88346484 42.94740301 90.9014715 C35.98956141 90.80720947 31.57846882 88.61995447 26.29473877 84.12698364 C22.33240164 79.57029594 21.69722822 75.96308064 21.29473877 70.12698364 C20.26026611 70.23139771 20.26026611 70.23139771 19.20489502 70.33792114 C11.49350813 70.78219858 7.0869227 69.21927868 1.29473877 64.12698364 C-2.39157235 60.25163092 -4.70526123 56.5616064 -4.70526123 51.12698364 C-5.69526123 51.20948364 -6.68526123 51.29198364 -7.70526123 51.37698364 C-13.42743127 51.37698364 -17.64156616 48.37479927 -22.39276123 45.50198364 C-27.36928948 40.39095463 -30.75582267 32.83025895 -31.14276123 25.68948364 C-31.03444628 18.95426298 -28.57952536 13.56776483 -24.70526123 8.12698364 C-16.90451376 0.86121566 -10.2314091 -0.02482848 0 0 Z " fill="#1AD309" transform="translate(85.70526123046875,52.873016357421875)"/>
<path d="M0 0 C73.92 0 147.84 0 224 0 C224.33 8.58 224.66 17.16 225 26 C228.96943699 35.33191512 228.96943699 35.33191512 236 40 C238.66287334 40.82823547 241.2617352 41.43346246 244 42 C244.09796875 42.86882812 244.1959375 43.73765625 244.296875 44.6328125 C245.39575074 53.56512842 245.39575074 53.56512842 250 61 C250.8353125 62.0828125 250.8353125 62.0828125 251.6875 63.1875 C254.13897585 65.10892702 255.52949663 65.42005239 258.5 66.125 C261.52787408 67.02049871 262.67155567 67.44302965 264.296875 70.19921875 C264.93758893 71.9559303 265.54924825 73.72348583 266.1328125 75.5 C268.18641737 81.42030233 271.93491901 84.15207817 277.3125 86.875 C278.8685583 87.59737451 280.42904921 88.31061189 282 89 C282 89.33 282 89.66 282 90 C237.86234335 90.0457471 193.7246892 90.08100377 149.58701353 90.10213066 C144.37978632 90.10463216 139.17255917 90.1072208 133.96533203 90.10986328 C132.92863795 90.1103879 131.89194386 90.11091252 130.82383481 90.11145304 C114.02326082 90.12016293 97.22270049 90.13593612 80.42213461 90.15430559 C63.19168706 90.1729884 45.96124668 90.18411329 28.73078942 90.18817699 C18.09302544 90.19092541 7.45530001 90.19961565 -3.18245211 90.21583293 C-10.47060974 90.22637984 -17.75874734 90.22960585 -25.04691204 90.22700275 C-29.25593789 90.22571788 -33.46489621 90.22772984 -37.67391014 90.23841095 C-41.52426874 90.24811089 -45.3745141 90.24865622 -49.2248778 90.24179779 C-50.62063515 90.24094956 -52.01639943 90.2435142 -53.41214302 90.24976636 C-55.30427259 90.25775184 -57.1964448 90.25228835 -59.08858109 90.24609566 C-60.14116584 90.2468551 -61.1937506 90.24761454 -62.27823186 90.24839699 C-65.01845527 89.99831572 -66.66428074 89.41045225 -69 88 C-68.0821875 87.91363281 -67.164375 87.82726562 -66.21875 87.73828125 C-57.87433195 86.78288044 -51.12690775 85.87626732 -45.515625 79.24609375 C-42.95788049 75.52231865 -41.81323922 72.28686806 -40.9375 67.875 C-40.01672265 64.34266116 -39.46234818 63.29158309 -36.32421875 61.3125 C-34.1855105 60.35151754 -32.04086786 59.4036382 -29.890625 58.46875 C-25.49665846 56.23613997 -23.60199904 53.60100198 -22 49 C-21.08544901 45.01901332 -20.45315503 41.05810478 -20 37 C-19.33613281 36.82984375 -18.67226562 36.6596875 -17.98828125 36.484375 C-10.78309622 34.53986197 -10.78309622 34.53986197 -5 30 C0.57378656 20.20622177 0.57378656 20.20622177 0 0 Z " fill="#FE0000" transform="translate(144,368)"/>
<path d="M0 0 C2.29228871 -0.01323434 4.58455499 -0.03118592 6.87677002 -0.05383301 C10.13617347 -0.08365996 13.39504687 -0.09348456 16.65457153 -0.09796143 C18.14355202 -0.1164061 18.14355202 -0.1164061 19.66261292 -0.13522339 C21.03438438 -0.13079727 21.03438438 -0.13079727 22.43386841 -0.12628174 C23.23401367 -0.12992737 24.03415894 -0.133573 24.85855103 -0.1373291 C27.46783742 0.32428321 28.34571569 1.14489251 29.93582153 3.23016357 C30.37332153 5.73016357 30.37332153 5.73016357 29.93582153 8.23016357 C27.50024541 10.79364569 26.05025983 11.2179221 22.50035095 11.59765625 C21.11275605 11.60935859 19.72496137 11.60453106 18.33743286 11.58660889 C17.57767654 11.58865326 16.81792023 11.59069763 16.03514099 11.59280396 C13.5291318 11.59580717 11.02378352 11.57735298 8.51785278 11.55828857 C6.77718773 11.55523076 5.03652024 11.55335481 3.29585266 11.5526123 C-0.34826042 11.54801256 -3.99215211 11.53359622 -7.63619995 11.51141357 C-12.31732683 11.48306844 -16.99827981 11.47219548 -21.67948437 11.46773148 C-25.27129367 11.46358464 -28.86306752 11.45377438 -32.45485878 11.44185638 C-34.18171211 11.43614343 -35.90856887 11.43138813 -37.63542747 11.42758942 C-40.04167116 11.42074976 -42.44777423 11.40713013 -44.85397339 11.39129639 C-45.57345154 11.39017853 -46.29292969 11.38906067 -47.03421021 11.38790894 C-51.94948729 11.34485475 -51.94948729 11.34485475 -53.06417847 10.23016357 C-53.31417847 6.79266357 -53.31417847 6.79266357 -53.06417847 3.23016357 C-49.96791292 1.16598654 -49.15711076 0.95540295 -45.62277222 0.81610107 C-44.67015503 0.77710693 -43.71753784 0.73811279 -42.73605347 0.69793701 C-41.66870972 0.66732178 -40.60136597 0.63670654 -39.50167847 0.60516357 C-38.37374878 0.56939209 -37.24581909 0.53362061 -36.08370972 0.49676514 C-24.05902442 0.17269123 -12.0285367 0.06218617 0 0 Z " fill="#FFBE5C" transform="translate(227.06417846679688,179.76983642578125)"/>
</svg>
