<?xml version="1.0" encoding="UTF-8"?>
<svg version="1.1" xmlns="http://www.w3.org/2000/svg" width="512" height="512">
<path d="M0 0 C168.96 0 337.92 0 512 0 C512 168.96 512 337.92 512 512 C343.04 512 174.08 512 0 512 C0 343.04 0 174.08 0 0 Z " fill="#FEBB01" transform="translate(0,0)"/>
<path d="M0 0 C1.2447065 -0.00382555 2.48941301 -0.00765109 3.77183789 -0.01159257 C7.20589029 -0.02009335 10.63972731 -0.01970135 14.07377326 -0.01541197 C17.78554704 -0.01293721 21.49729606 -0.02196824 25.20906067 -0.02944946 C32.47301459 -0.042178 39.73693151 -0.04399243 47.0008947 -0.0416492 C52.90780877 -0.0398637 58.81471164 -0.04162066 64.72162437 -0.04587364 C65.56342547 -0.04646883 66.40522656 -0.04706402 67.27253678 -0.04767724 C68.9828592 -0.04888904 70.69318162 -0.05010318 72.40350404 -0.05131962 C88.43181101 -0.0621882 104.46009692 -0.06003599 120.48840507 -0.05393478 C135.13613489 -0.04876709 149.78379818 -0.06001836 164.43151484 -0.07903299 C179.48814923 -0.09842792 194.54475217 -0.10666444 209.60139912 -0.10290974 C218.04797155 -0.1010001 226.49448737 -0.10346209 234.94104958 -0.11762428 C242.13235241 -0.1295602 249.32356379 -0.1309183 256.51486794 -0.11883412 C260.18018385 -0.1129607 263.84533267 -0.11180307 267.51063728 -0.12383652 C271.49322542 -0.13675907 275.47541887 -0.12619435 279.45800781 -0.11352539 C280.60365387 -0.12089968 281.74929992 -0.12827396 282.92966253 -0.13587171 C303.37063192 0.00042708 320.96763245 9.16055373 335.41947937 23.26069641 C334.06326555 26.28872871 332.54555628 28.3832063 330.20163918 30.72183895 C329.20137339 31.72715283 329.20137339 31.72715283 328.18090022 32.75277609 C327.07897477 33.84493983 327.07897477 33.84493983 325.95478821 34.95916748 C324.78652058 36.12894004 324.78652058 36.12894004 323.59465158 37.32234436 C320.97539379 39.94255715 318.34904392 42.55554473 315.72270203 45.1686554 C313.84670979 47.04244712 311.97112074 48.91663423 310.09603882 50.79133606 C306.05317372 54.83183847 302.00671716 58.86871499 297.95785904 62.90321159 C292.09902773 68.74136014 286.24620539 74.58550291 280.39492802 80.43122125 C270.89509691 89.92179453 261.39117432 99.40825909 251.88432312 108.89179993 C251.31529594 109.45943379 250.74626877 110.02706765 250.15999834 110.61190254 C249.30539803 111.46440955 249.30539803 111.46440955 248.43353307 112.33413893 C240.35978137 120.38813151 232.28699221 128.44308721 224.21537781 136.4992218 C223.64764871 137.06586005 223.07991962 137.63249829 222.49498661 138.21630739 C213.0282199 147.66504949 203.5634839 157.11582403 194.09978712 166.56764084 C188.26253871 172.39729968 182.423221 178.22487198 176.58120905 184.04975725 C172.57790794 188.04148641 168.57630466 192.03491201 164.57602836 196.02967244 C162.26801435 198.33435644 159.95888358 200.6379024 157.64808846 202.93979836 C155.14246628 205.43598231 152.6399353 207.93522533 150.13813782 210.4352417 C149.4079823 211.16112014 148.67782678 211.88699858 147.92554533 212.63487333 C144.5272614 216.03698834 141.36393452 219.44826319 138.41947937 223.26069641 C137.13757559 224.44065953 135.82544897 225.58883637 134.48197937 226.69819641 C132.00812737 228.80757667 130.01635568 230.74444484 127.91947937 233.26069641 C124.43319133 237.44424206 120.33755294 241.9494442 115.29838562 244.21382141 C112.91552899 245.54148373 112.56606976 246.83047296 111.41947937 249.26069641 C109.72026062 250.90132141 109.72026062 250.90132141 107.73197937 252.51069641 C104.15042066 255.53526769 101.12258204 258.76411936 98.08744812 262.32710266 C95.66111804 265.13982722 93.14030256 267.72969809 90.41947937 270.26069641 C89.75947937 270.26069641 89.09947937 270.26069641 88.41947937 270.26069641 C88.21322937 270.81757141 88.00697937 271.37444641 87.79447937 271.94819641 C86.27425963 274.5049296 84.44468651 275.94610689 82.13432312 277.77632141 C77.93866807 281.40809572 74.48439127 285.87918908 71.10697937 290.26069641 C70.55010437 290.92069641 69.99322937 291.58069641 69.41947937 292.26069641 C68.75947937 292.26069641 68.09947937 292.26069641 67.41947937 292.26069641 C67.41947937 292.92069641 67.41947937 293.58069641 67.41947937 294.26069641 C65.84526062 295.81147766 65.84526062 295.81147766 63.73197937 297.57319641 C59.73564735 300.97462786 56.05125412 304.56872026 52.40776062 308.34663391 C51.68975281 309.08139954 50.971745 309.81616516 50.23197937 310.57319641 C49.22070984 311.61927063 49.22070984 311.61927063 48.18901062 312.68647766 C46.41947937 314.26069641 46.41947937 314.26069641 44.41947937 314.26069641 C44.17197937 314.83304016 43.92447937 315.40538391 43.66947937 315.99507141 C42.22631738 318.61080252 40.53731715 320.40843097 38.41947937 322.51069641 C37.36760437 323.57030579 37.36760437 323.57030579 36.29447937 324.65132141 C34.41947937 326.26069641 34.41947937 326.26069641 32.41947937 326.26069641 C32.19260437 326.81757141 31.96572937 327.37444641 31.73197937 327.94819641 C30.04397901 330.92229229 27.9527142 332.98078506 25.41947937 335.26069641 C24.75947937 335.26069641 24.09947937 335.26069641 23.41947937 335.26069641 C23.25447937 335.94132141 23.08947937 336.62194641 22.91947937 337.32319641 C20.50773589 342.04619405 16.15529605 346.03308636 11.28666687 348.21772766 C8.89684877 349.55262605 8.50463514 350.78292406 7.41947937 353.26069641 C6.45275473 354.70027549 5.45163629 356.11728457 4.41947937 357.51069641 C3.64604187 358.57030579 3.64604187 358.57030579 2.85697937 359.65132141 C2.38260437 360.18241516 1.90822937 360.71350891 1.41947937 361.26069641 C0.75947937 361.26069641 0.09947937 361.26069641 -0.58052063 361.26069641 C-0.58052063 361.92069641 -0.58052063 362.58069641 -0.58052063 363.26069641 C-1.24052063 363.26069641 -1.90052063 363.26069641 -2.58052063 363.26069641 C-2.83704407 363.85624329 -3.0935675 364.45179016 -3.35786438 365.06538391 C-4.6902175 367.45766013 -6.01420668 368.6879784 -8.14302063 370.38569641 C-10.79077729 372.46973275 -10.79077729 372.46973275 -12.58052063 375.26069641 C-13.57052063 375.59069641 -14.56052063 375.92069641 -15.58052063 376.26069641 C-16.05489563 377.20944641 -16.52927063 378.15819641 -17.01802063 379.13569641 C-18.58314147 382.2659381 -19.60214432 383.53131662 -22.58052063 385.26069641 C-23.24052063 385.26069641 -23.90052063 385.26069641 -24.58052063 385.26069641 C-24.58052063 385.92069641 -24.58052063 386.58069641 -24.58052063 387.26069641 C-25.24052063 387.26069641 -25.90052063 387.26069641 -26.58052063 387.26069641 C-26.92083313 388.06507141 -26.92083313 388.06507141 -27.26802063 388.88569641 C-30.4061832 394.56427629 -34.39576625 397.96462924 -39.57661438 401.67085266 C-42.70068077 404.14940046 -45.13455789 407.12912291 -47.58052063 410.26069641 C-62.87037689 398.29472195 -74.48354279 379.74792006 -77.11537647 360.31052017 C-77.70996283 354.71267677 -77.72240381 349.14660969 -77.7142334 343.52210999 C-77.71649895 342.3679472 -77.71876451 341.21378441 -77.72109872 340.024647 C-77.72740947 336.17200474 -77.72661124 332.31939794 -77.7257843 328.4667511 C-77.72823542 325.69837308 -77.73215246 322.92999753 -77.73596191 320.16162109 C-77.74424752 313.43074636 -77.74701581 306.69988038 -77.74757429 299.96900097 C-77.74805044 294.49449741 -77.75011013 289.01999673 -77.75327492 283.54549408 C-77.76207576 268.00399904 -77.76669518 252.46251088 -77.76594444 236.92101333 C-77.76590449 236.08419761 -77.76586453 235.2473819 -77.76582336 234.38520813 C-77.76578248 233.5473637 -77.7657416 232.70951927 -77.76569948 231.84628561 C-77.76529317 218.27268938 -77.77486057 204.69912092 -77.78896173 191.12553272 C-77.80334625 177.16839988 -77.81023077 163.21128057 -77.80936795 149.25414014 C-77.8090367 141.42626348 -77.8117522 133.59841592 -77.82254601 125.77054596 C-77.83167836 119.10519927 -77.83380388 112.43989488 -77.82703658 105.77454463 C-77.82378512 102.37847671 -77.82476454 98.98255562 -77.83238983 95.58648491 C-77.84014273 91.89332424 -77.83544303 88.20037377 -77.82775879 84.50721741 C-77.83547413 82.92151888 -77.83547413 82.92151888 -77.84334534 81.30378604 C-77.75059721 61.01215212 -72.09293703 42.64028308 -58.58052063 27.26069641 C-58.14385071 26.76279602 -57.70718079 26.26489563 -57.25727844 25.75190735 C-41.91666574 8.57248719 -22.98745714 -0.07539196 0 0 Z " fill="#0081D7" transform="translate(115.58052062988281,44.73930358886719)"/>
<path d="M0 0 C168.96 0 337.92 0 512 0 C512 168.96 512 337.92 512 512 C343.04 512 174.08 512 0 512 C0 343.04 0 174.08 0 0 Z M54 75 C41.50878458 91.35502358 37.83093977 108.78095991 37.87301636 128.88575745 C37.87145637 130.04359692 37.86989638 131.20143639 37.86828911 132.39436191 C37.86500942 135.58105145 37.86616431 138.76770236 37.86927533 141.95439088 C37.87154913 145.40159259 37.86804001 148.8487893 37.86529541 152.29598999 C37.86086001 159.03808775 37.86180421 165.78017435 37.86470805 172.52227253 C37.86697066 178.00346051 37.86727089 183.48464536 37.86618423 188.96583366 C37.866031 189.74730749 37.86587777 190.52878132 37.86571989 191.33393617 C37.86540015 192.92170025 37.86507594 194.50946432 37.8647473 196.0972284 C37.86189909 210.96850223 37.8651693 225.83976988 37.87054767 240.71104269 C37.87501598 253.46060382 37.87423827 266.21015584 37.86962891 278.9597168 C37.86427303 293.78100625 37.8621728 308.6022903 37.86524117 323.42358059 C37.86555971 325.00504776 37.86587408 326.58651493 37.86618423 328.1679821 C37.86633851 328.94600902 37.86649279 329.72403594 37.86665174 330.52563943 C37.86751378 335.99830626 37.86606076 341.47096965 37.86370468 346.94363594 C37.86089528 353.61565182 37.86166905 360.28765595 37.86698543 366.95967049 C37.8696069 370.36128413 37.87065388 373.76287818 37.86733627 377.16449165 C37.86460107 380.85675599 37.86803496 384.54896535 37.87301636 388.2412262 C37.87078564 389.30932779 37.86855491 390.37742939 37.86625659 391.4778977 C37.92562253 414.18741729 46.27898571 433.74387416 62 450 C62.80308594 450.83273437 63.60617188 451.66546875 64.43359375 452.5234375 C76.18435489 463.83040964 93.7277188 473.08740893 110.29422951 473.1398077 C111.34793633 473.14549894 112.40164315 473.15119018 113.48728049 473.15705389 C114.63871334 473.15823376 115.79014619 473.15941364 116.97647095 473.16062927 C118.20465369 473.16571709 119.43283643 473.17080491 120.69823682 473.17604691 C124.10494474 473.18903185 127.51160919 473.19752841 130.9183321 473.2040199 C133.84133396 473.21040105 136.76431842 473.22046989 139.6873094 473.23058056 C149.3192082 473.26387692 158.95111761 473.28542517 168.58305508 473.30378041 C171.0936939 473.30857871 173.6043323 473.31356167 176.11497068 473.31858563 C191.72500795 473.34956923 207.33504901 473.37623906 222.94510841 473.39300442 C226.55975984 473.39695357 230.17441121 473.4009566 233.7890625 473.4050293 C235.13657981 473.40654184 235.13657981 473.40654184 236.51131968 473.40808494 C251.03823568 473.42506298 265.56498047 473.46614031 280.09181304 473.51705229 C295.02743642 473.56896329 309.96297207 473.5979647 324.89868486 473.6052013 C333.27577669 473.60984752 341.65258854 473.62442873 350.02959061 473.6649456 C357.16997328 473.69944024 364.31002541 473.71310725 371.45048656 473.70052146 C375.08647177 473.69473889 378.72175977 473.69824129 382.35763741 473.7286911 C401.23234283 473.87837547 419.62681645 473.27604032 435.6875 462.0625 C436.33847656 461.63066406 436.98945313 461.19882812 437.66015625 460.75390625 C456.01480744 448.37004521 468.05159561 429.53376523 473 408 C474.0074408 401.4269392 474.15081358 395.00260059 474.15390015 388.35957336 C474.1582824 387.20374242 474.16266465 386.04791149 474.1671797 384.85705537 C474.17818644 381.66622023 474.18477399 378.47541264 474.18936086 375.28456295 C474.19534923 371.83572534 474.20695096 368.38690543 474.21765137 364.93807983 C474.24210402 356.6164413 474.25679322 348.29479695 474.26971143 339.97313359 C474.27342897 337.61868274 474.27740175 335.26423246 474.2814641 332.90978217 C474.30670928 318.25747661 474.32874052 303.60516998 474.34119225 288.95284748 C474.34412146 285.56353565 474.34708319 282.17422386 474.35009766 278.78491211 C474.35121673 277.52147309 474.35121673 277.52147309 474.35235842 276.23251005 C474.36499027 262.61247036 474.39818823 248.99256185 474.43989949 235.37258337 C474.48246767 221.35668407 474.50590447 207.34085165 474.51111281 193.32488793 C474.5145104 185.468718 474.52606853 177.61275296 474.55921555 169.75664711 C474.58742285 163.06071162 474.59812596 156.3650231 474.58702008 149.66903285 C474.58188519 146.26158988 474.58718762 142.85507517 474.60948563 139.44764137 C474.7649757 114.29764093 472.5671504 89.89005736 454 71 C453.01 70.67 452.02 70.34 451 70 C450.30149957 68.6830644 449.63794168 67.34731312 449 66 C439.53567825 55.28419769 425.63613894 49.05857322 412 46 C411.3874165 45.82417554 410.77483299 45.64835108 410.14368635 45.46719861 C407.63466264 44.92037776 405.34401132 44.87205629 402.77523708 44.86857224 C401.71162093 44.86473109 400.64800477 44.86088995 399.55215782 44.8569324 C398.38457327 44.85779888 397.21698872 44.85866537 396.01402283 44.85955811 C394.77288288 44.85658698 393.53174294 44.85361586 392.25299269 44.8505547 C388.80577154 44.84337326 385.35860022 44.84069529 381.91137516 44.83995724 C378.19408493 44.83810612 374.47680548 44.83055837 370.75952148 44.82382202 C362.62911526 44.81023912 354.49871397 44.80421373 346.36829829 44.79981136 C341.28996536 44.79704824 336.21163433 44.7928107 331.13330269 44.78830719 C317.06894392 44.7761134 303.00458668 44.76581507 288.94022274 44.7624321 C288.04000898 44.76221253 287.13979521 44.76199297 286.21230224 44.76176675 C285.30994556 44.76154847 284.40758887 44.76133019 283.47788805 44.7611053 C281.64940258 44.76066183 279.82091711 44.76021527 277.99243164 44.75976562 C277.08544156 44.7595442 276.17845147 44.75932277 275.24397684 44.75909463 C260.55645803 44.75514893 245.86898891 44.73770239 231.18148928 44.7144061 C216.09677202 44.69067329 201.01207966 44.67822933 185.92734343 44.67706418 C177.46004345 44.67614838 168.99280817 44.67042019 160.52552605 44.65224457 C153.31321894 44.63681736 146.10099652 44.63173845 138.88867604 44.63998267 C135.21136281 44.64388024 131.53421996 44.64300359 127.85692787 44.62892532 C123.86278409 44.61377449 119.86902155 44.62207949 115.87486267 44.63250732 C114.72289318 44.62445092 113.57092368 44.61639452 112.38404602 44.60809398 C88.66368827 44.75257844 69.0196214 57.44758868 54 75 Z " fill="#FEFEFE" transform="translate(0,0)"/>
<path d="M0 0 C0 71.61 0 143.22 0 217 C-26.296875 217.0825 -52.59375 217.165 -79.6875 217.25 C-92.11796997 217.30462402 -92.11796997 217.30462402 -104.79956055 217.36035156 C-114.96057129 217.37841797 -114.96057129 217.37841797 -119.72541809 217.3817749 C-123.03579042 217.3854843 -126.34590317 217.40040477 -129.65620422 217.42230225 C-133.89221947 217.44994764 -138.12786283 217.45792652 -142.36395991 217.4522891 C-143.91013955 217.45346613 -145.45633357 217.46127395 -147.00243509 217.47686052 C-156.63881676 217.5694133 -164.93295302 216.41483507 -174 213 C-175.06089183 212.61088566 -176.12178366 212.22177132 -177.21482372 211.82086563 C-184.92663902 208.9208457 -191.3329938 204.76383599 -198 200 C-197.0381114 193.90352293 -191.53446241 189.91797155 -186.83203125 186.359375 C-186.14496094 185.86953125 -185.45789063 185.3796875 -184.75 184.875 C-181.16078803 182.31328793 -179.30341908 179.72090774 -177 176 C-176.34 176 -175.68 176 -175 176 C-175 175.34 -175 174.68 -175 174 C-171.53846154 171 -171.53846154 171 -169 171 C-168.87625 170.401875 -168.7525 169.80375 -168.625 169.1875 C-168 167 -168 167 -166 164 C-165.01 164 -164.02 164 -163 164 C-162.61521484 163.10667969 -162.61521484 163.10667969 -162.22265625 162.1953125 C-160.89030313 159.80303629 -159.56631395 158.57271801 -157.4375 156.875 C-154.78974334 154.79096366 -154.78974334 154.79096366 -153 152 C-152.34 152 -151.68 152 -151 152 C-151 151.34 -151 150.68 -151 150 C-150.401875 149.566875 -149.80375 149.13375 -149.1875 148.6875 C-146.64239213 146.72413107 -145.63691874 144.75002349 -144 142 C-142.38025441 140.28769752 -140.7041054 138.62836738 -139 137 C-137.62230657 135.62769872 -136.24747938 134.252516 -134.875 132.875 C-133.58333333 131.58333333 -132.29166667 130.29166667 -131 129 C-130.4740625 128.47277344 -129.948125 127.94554687 -129.40625 127.40234375 C-128.15511554 126.15468466 -126.8909441 124.92012978 -125.625 123.6875 C-122.96275047 121.04797613 -122.96275047 121.04797613 -120.6875 118.125 C-118.06766688 114.89995227 -114.99601269 112.33831992 -111.83984375 109.65234375 C-109.86047467 107.96529983 -109.86047467 107.96529983 -108 105.5 C-105.58754578 102.48443222 -102.8057385 100.18724755 -99.875 97.6875 C-97.86602082 95.971342 -97.86602082 95.971342 -96 93.5 C-92.51938781 89.14923476 -88.34444078 84.78148026 -83 83 C-83 82.34 -83 81.68 -83 81 C-82.34 81 -81.68 81 -81 81 C-80.73832031 80.41089844 -80.47664063 79.82179688 -80.20703125 79.21484375 C-78.9357725 76.88214566 -77.59769469 75.39645632 -75.6875 73.5625 C-75.06488281 72.95664062 -74.44226563 72.35078125 -73.80078125 71.7265625 C-73.20652344 71.15679687 -72.61226563 70.58703125 -72 70 C-69.39080215 67.4529259 -66.97404956 64.9677373 -64.6875 62.125 C-62.69376687 59.67502073 -60.53380138 57.66714375 -58.125 55.625 C-55.32415343 53.24375591 -52.87347307 50.80698414 -50.5 48 C-47.53685713 44.50240898 -44.32778202 41.54778298 -40.83984375 38.58203125 C-38.4288924 36.50892022 -36.21918879 34.27609106 -34 32 C-32.83468599 30.83198224 -31.66792182 29.66541016 -30.5 28.5 C-29.90058594 27.90058594 -29.30117187 27.30117188 -28.68359375 26.68359375 C-22.12239583 20.12239583 -15.56119792 13.56119792 -9 7 C-8.11441406 6.07960938 -8.11441406 6.07960938 -7.2109375 5.140625 C-6.58445312 4.49609375 -5.95796875 3.8515625 -5.3125 3.1875 C-4.44044922 2.28064453 -4.44044922 2.28064453 -3.55078125 1.35546875 C-2 0 -2 0 0 0 Z " fill="#FD4719" transform="translate(266,256)"/>
<path d="M0 0 C8.09741129 3.30020284 13.54108665 16.31780767 16.9139744 23.78006458 C20.40712755 33.91213826 21.48741351 43.26221997 21.36807597 53.97708607 C21.36684653 55.45072131 21.36739155 56.9243589 21.369537 58.39799309 C21.37042888 62.29449165 21.34748529 66.19048475 21.31909525 70.08686543 C21.29607563 73.76199661 21.29522994 77.43701357 21.29239237 81.1122179 C21.27152035 91.81406539 21.2156753 102.51582163 21.1639744 113.21756458 C21.0814744 137.16318958 20.9989744 161.10881458 20.9139744 185.78006458 C-47.7260256 185.78006458 -116.3660256 185.78006458 -187.0860256 185.78006458 C-180.33582549 177.90483112 -180.33582549 177.90483112 -177.56340253 175.12042713 C-176.93039523 174.48234529 -176.29738793 173.84426344 -175.64519858 173.18684578 C-174.63078726 172.17168782 -174.63078726 172.17168782 -173.59588277 171.13602161 C-172.49599254 170.029558 -172.49599254 170.029558 -171.37388229 168.90074158 C-168.93052184 166.44408812 -166.48364987 163.99096411 -164.03670919 161.53787708 C-162.27861326 159.77187349 -160.52069858 158.00568945 -158.76295125 156.23933887 C-153.50353805 150.95606223 -148.23982353 145.67708989 -142.97493917 140.39926672 C-141.48786972 138.90847973 -140.00092805 137.41756541 -138.51403129 135.92660618 C-129.27346891 126.66082993 -120.03132139 117.39663798 -110.78438032 108.13722706 C-108.64825555 105.99817288 -106.51214697 103.85910256 -104.37606466 101.72000599 C-103.57974797 100.92257022 -103.57974797 100.92257022 -102.76734407 100.10902464 C-94.1455088 91.47450391 -85.53402001 82.82973896 -76.92665569 74.18079519 C-68.08549924 65.29728042 -59.23500055 56.42316043 -50.37525654 47.55818272 C-45.4023694 42.58187737 -40.43375644 37.60145857 -35.47562444 32.61044788 C-30.81988245 27.92388105 -26.15165689 23.25002823 -21.47455442 18.58476162 C-19.75607654 16.86650579 -18.04190957 15.14392659 -16.33229673 13.41685009 C-14.00690509 11.06899341 -11.66681881 8.73687179 -9.32220113 6.40823841 C-8.64146547 5.71362066 -7.96072981 5.01900291 -7.2593658 4.30333614 C-6.63157399 3.68611628 -6.00378218 3.06889641 -5.35696638 2.43297291 C-4.54848408 1.62245582 -4.54848408 1.62245582 -3.72366881 0.79556465 C-2.0860256 -0.21993542 -2.0860256 -0.21993542 0 0 Z " fill="#88CA01" transform="translate(452.086025595665,70.2199354171753)"/>
<path d="M0 0 C0 71.61 0 143.22 0 217 C-26.296875 217.0825 -52.59375 217.165 -79.6875 217.25 C-92.11796997 217.30462402 -92.11796997 217.30462402 -104.79956055 217.36035156 C-114.96057129 217.37841797 -114.96057129 217.37841797 -119.72541809 217.3817749 C-123.03579042 217.3854843 -126.34590317 217.40040477 -129.65620422 217.42230225 C-133.89221947 217.44994764 -138.12786283 217.45792652 -142.36395991 217.4522891 C-143.91013955 217.45346613 -145.45633357 217.46127395 -147.00243509 217.47686052 C-157.49382298 217.57762522 -168.01246331 216.99169113 -177 211 C-174.36 211 -171.72 211 -169 211 C-169 211.66 -169 212.32 -169 213 C-164.71 213.33 -160.42 213.66 -156 214 C-155.67 213.34 -155.34 212.68 -155 212 C-153.0625 212.375 -153.0625 212.375 -151 213 C-150.505 213.99 -150.505 213.99 -150 215 C-105.12 215 -60.24 215 -14 215 C-14 214.67 -14 214.34 -14 214 C-12.02 213.67 -10.04 213.34 -8 213 C-8.33 212.34 -8.66 211.68 -9 211 C-9.1001472 208.0324307 -9.13958522 205.08891969 -9.1328125 202.12109375 C-9.13413177 201.21329163 -9.13545105 200.3054895 -9.1368103 199.37017822 C-9.13873679 196.39258483 -9.13236827 193.41508394 -9.125 190.4375 C-9.12367065 188.92659286 -9.12367065 188.92659286 -9.12231445 187.38516235 C-9.10354273 169.24210853 -8.71878533 151.1283014 -8 133 C-7.67 133 -7.34 133 -7 133 C-6.9845388 133.87179398 -6.9845388 133.87179398 -6.96876526 134.76119995 C-6.85827142 140.96130386 -6.74395712 147.16132994 -6.62768555 153.36132812 C-6.58509242 155.65720956 -6.54338738 157.95310769 -6.50268555 160.24902344 C-6.44309225 163.60096231 -6.38000634 166.9528225 -6.31640625 170.3046875 C-6.29133751 171.77674149 -6.29133751 171.77674149 -6.26576233 173.27853394 C-6.02599697 185.52926676 -5.47119744 197.74886667 -5 210 C-4.505 170.895 -4.505 170.895 -4 131 C-3.67 131 -3.34 131 -3 131 C-3 121.76 -3 112.52 -3 103 C-3.33 103 -3.66 103 -4 103 C-4.33 80.89 -4.66 58.78 -5 36 C-5.66 35.67 -6.32 35.34 -7 35 C-9.18220673 29.30201576 -9.21915315 24.05106191 -9 18 C-9.66 18 -10.32 18 -11 18 C-11 19.32 -11 20.64 -11 22 C-11.99 22 -12.98 22 -14 22 C-14 21.01 -14 20.02 -14 19 C-14.99 19 -15.98 19 -17 19 C-17.33 19.99 -17.66 20.98 -18 22 C-18.99 22 -19.98 22 -21 22 C-21.66 22.33 -22.32 22.66 -23 23 C-21.63757574 19.93286756 -20.10300295 17.88159707 -17.6875 15.5625 C-17.06230469 14.95535156 -16.43710938 14.34820312 -15.79296875 13.72265625 C-14.90544922 12.86994141 -14.90544922 12.86994141 -14 12 C-13.175 11.175 -12.35 10.35 -11.5 9.5 C-10.675 8.675 -9.85 7.85 -9 7 C-8.11248047 6.07767578 -8.11248047 6.07767578 -7.20703125 5.13671875 C-6.58183594 4.49347656 -5.95664062 3.85023438 -5.3125 3.1875 C-4.44044922 2.28064453 -4.44044922 2.28064453 -3.55078125 1.35546875 C-2 0 -2 0 0 0 Z " fill="#F94816" transform="translate(266,256)"/>
<path d="M0 0 C0.33 0 0.66 0 1 0 C1.04581181 36.10304836 1.08103665 72.20609162 1.10213066 108.30916308 C1.10463197 112.57476111 1.10722062 116.84035908 1.10986328 121.10595703 C1.1103879 121.95513452 1.11091252 122.804312 1.11145304 123.67922214 C1.12014756 137.41572625 1.13591228 151.15221357 1.15430559 164.88870773 C1.17303117 178.99131938 1.18412234 193.09392226 1.18817699 207.19654584 C1.19091654 215.89345228 1.19955858 224.59031123 1.21583293 233.28720304 C1.22643264 239.25693192 1.22959388 245.22663637 1.22700275 251.19637397 C1.2257261 254.63679582 1.22763595 258.07713488 1.23841095 261.51754189 C1.24840482 265.2575078 1.24595255 268.9972728 1.24050903 272.73724365 C1.24633472 273.81120982 1.2521604 274.88517599 1.25816262 275.99168658 C1.22089345 285.50679549 0.0886468 294.75178897 -3.125 303.75 C-3.47820312 304.75546875 -3.83140625 305.7609375 -4.1953125 306.796875 C-4.46085938 307.52390625 -4.72640625 308.2509375 -5 309 C-6.13480527 305.39006828 -6.10015767 302.0157673 -6.0625 298.25 C-6.05347656 297.07953125 -6.04445313 295.9090625 -6.03515625 294.703125 C-6.01775391 293.36507812 -6.01775391 293.36507812 -6 292 C-4.68 292.33 -3.36 292.66 -2 293 C-1.67 243.17 -1.34 193.34 -1 142 C-68.32 142 -135.64 142 -205 142 C-205 212.62 -205 283.24 -205 356 C-182.89 356.020625 -160.78 356.04125 -138 356.0625 C-127.53732422 356.07615601 -127.53732422 356.07615601 -116.86328125 356.09008789 C-110.59777857 356.09343282 -110.59777857 356.09343282 -104.33227539 356.09544373 C-101.54678548 356.09637342 -98.76131472 356.10011318 -95.97583008 356.10557556 C-92.41671732 356.112462 -88.85763221 356.11448608 -85.29851341 356.11307228 C-83.38417065 356.11350648 -81.46983091 356.11885569 -79.55549622 356.12442875 C-71.2411913 356.11442227 -63.91094414 355.75963168 -56 353 C-55.01 353 -54.02 353 -53 353 C-53 352.34 -53 351.68 -53 351 C-51.68 351 -50.36 351 -49 351 C-49 350.34 -49 349.68 -49 349 C-46.36 348.67 -43.72 348.34 -41 348 C-55.56995111 361.00732868 -77.49871702 358.81536673 -95.6987381 358.60768127 C-99.2388452 358.5729957 -102.77869046 358.57187524 -106.31896973 358.56762695 C-116.60863275 358.53639372 -126.89808239 358.4526266 -137.1875 358.375 C-160.225625 358.25125 -183.26375 358.1275 -207 358 C-207 286.39 -207 214.78 -207 141 C-138.69 141 -70.38 141 0 141 C0 94.47 0 47.94 0 0 Z " fill="#D7C63C" transform="translate(473,115)"/>
<path d="M0 0 C1.27781479 3.60298638 0.67210556 5.85005742 -0.41257954 9.45985031 C-2.13556779 15.94872207 -2.42785353 21.95580676 -2.39872742 28.64239502 C-2.40537424 29.85729606 -2.41202107 31.07219711 -2.41886932 32.32391334 C-2.43418083 35.66042545 -2.43635788 38.99645716 -2.43273985 42.33296943 C-2.43211188 45.94428002 -2.44877435 49.55551795 -2.46325684 53.16679382 C-2.48597215 59.41172079 -2.49791569 65.65659225 -2.50238609 71.90155792 C-2.50886523 80.9305343 -2.53183347 89.95941063 -2.55872939 98.98834655 C-2.60193067 113.63984062 -2.63193538 128.29133046 -2.65356445 142.94287109 C-2.67459414 157.1691292 -2.70188657 171.39535275 -2.73754883 185.62158203 C-2.73974765 186.49959304 -2.74194648 187.37760406 -2.74421193 188.28222147 C-2.75528208 192.68727514 -2.7664748 197.09232848 -2.77772844 201.49738169 C-2.87081919 237.99822461 -2.94246081 274.49908458 -3 311 C-2.34 311 -1.68 311 -1 311 C-0.46969932 313.43578787 0.04952312 315.87305975 0.5625 318.3125 C0.71396484 319.00279297 0.86542969 319.69308594 1.02148438 320.40429688 C1.71761569 323.75544066 2.10155309 325.69534072 1 329 C0.26040183 327.05015029 -0.47727252 325.09953957 -1.203125 323.14453125 C-1.83395743 321.44684985 -2.47726617 319.75380499 -3.125 318.0625 C-5.33708087 310.32021694 -5.14531293 302.24694756 -5.13371277 294.26141357 C-5.13597833 293.10725079 -5.13824388 291.953088 -5.14057809 290.76395059 C-5.14688884 286.91130833 -5.14609061 283.05870152 -5.14526367 279.20605469 C-5.14771479 276.43767667 -5.15163183 273.66930112 -5.15544128 270.90092468 C-5.16372689 264.17004994 -5.16649518 257.43918397 -5.16705366 250.70830455 C-5.16752981 245.233801 -5.1695895 239.75930032 -5.17275429 234.28479767 C-5.18155513 218.74330262 -5.18617455 203.20181447 -5.18542381 187.66031691 C-5.18538386 186.8235012 -5.1853439 185.98668549 -5.18530273 185.12451172 C-5.18526185 184.28666729 -5.18522097 183.44882286 -5.18517885 182.5855892 C-5.18477254 169.01199297 -5.19433994 155.43842451 -5.2084411 141.86483631 C-5.22282562 127.90770347 -5.22971014 113.95058416 -5.22884732 99.99344373 C-5.22851607 92.16556707 -5.23123157 84.33771951 -5.24202538 76.50984955 C-5.25115773 69.84450286 -5.25328325 63.17919847 -5.24651595 56.51384822 C-5.24326449 53.1177803 -5.24424391 49.72185921 -5.2518692 46.3257885 C-5.2596221 42.63262783 -5.2549224 38.93967736 -5.24723816 35.246521 C-5.2549535 33.66082247 -5.2549535 33.66082247 -5.26282471 32.04308963 C-5.21230232 20.98969338 -3.54589924 10.47222241 0 0 Z " fill="#237AB5" transform="translate(43,94)"/>
<path d="M0 0 C97.68 0 195.36 0 296 0 C286.27941109 6.4803926 265.60163523 3.14460939 254.19921875 3.1328125 C251.90931686 3.13383406 249.61941509 3.13517686 247.32951355 3.1368103 C241.08885527 3.13952839 234.84822167 3.13499597 228.60756683 3.12857056 C224.6758161 3.12498936 220.74406906 3.12337665 216.81231689 3.12231445 C144.54022339 3.09995203 72.2697083 2.54265026 0 2 C0 1.34 0 0.68 0 0 Z " fill="#F7E1C7" transform="translate(112,473)"/>
<path d="M0 0 C1.2447065 -0.00382555 2.48941301 -0.00765109 3.77183789 -0.01159257 C7.20589029 -0.02009335 10.63972731 -0.01970135 14.07377326 -0.01541197 C17.78554704 -0.01293721 21.49729606 -0.02196824 25.20906067 -0.02944946 C32.47301459 -0.042178 39.73693151 -0.04399243 47.0008947 -0.0416492 C52.90780877 -0.0398637 58.81471164 -0.04162066 64.72162437 -0.04587364 C65.56342547 -0.04646883 66.40522656 -0.04706402 67.27253678 -0.04767724 C68.9828592 -0.04888904 70.69318162 -0.05010318 72.40350404 -0.05131962 C88.43181101 -0.0621882 104.46009692 -0.06003599 120.48840507 -0.05393478 C135.13613489 -0.04876709 149.78379818 -0.06001836 164.43151484 -0.07903299 C179.48814923 -0.09842792 194.54475217 -0.10666444 209.60139912 -0.10290974 C218.04797155 -0.1010001 226.49448737 -0.10346209 234.94104958 -0.11762428 C242.13235241 -0.1295602 249.32356379 -0.1309183 256.51486794 -0.11883412 C260.18018385 -0.1129607 263.84533267 -0.11180307 267.51063728 -0.12383652 C271.49322542 -0.13675907 275.47541887 -0.12619435 279.45800781 -0.11352539 C280.60365387 -0.12089968 281.74929992 -0.12827396 282.92966253 -0.13587171 C298.38563741 -0.03281247 310.53368041 5.19025865 323.41947937 13.26069641 C320.92883049 13.94777196 319.04061645 14.26069641 316.41947937 14.26069641 C316.41947937 12.94069641 316.41947937 11.62069641 316.41947937 10.26069641 C312.45947937 9.60069641 308.49947937 8.94069641 304.41947937 8.26069641 C304.41947937 7.60069641 304.41947937 6.94069641 304.41947937 6.26069641 C303.75947937 6.26069641 303.09947937 6.26069641 302.41947937 6.26069641 C302.41947937 5.60069641 302.41947937 4.94069641 302.41947937 4.26069641 C288.04588745 1.75588805 273.65888127 1.98522271 259.11498952 2.02856517 C255.4328919 2.03729532 251.75080014 2.03427283 248.06869507 2.03276062 C241.70705467 2.03171775 235.34545567 2.03793136 228.98382568 2.0492363 C219.78626331 2.06557009 210.58872071 2.07070732 201.39114541 2.07321228 C186.4645436 2.0775771 171.53796379 2.09085308 156.6113739 2.1098175 C142.12146616 2.12820785 127.63156441 2.14234887 113.14164734 2.15083313 C111.7993242 2.1516213 111.7993242 2.1516213 110.42988342 2.15242539 C105.94000816 2.15503569 101.45013286 2.15756305 96.96025753 2.1600492 C59.77998262 2.18074387 22.59973272 2.21593612 -14.58052063 2.26069641 C-14.58052063 2.92069641 -14.58052063 3.58069641 -14.58052063 4.26069641 C-15.32817688 4.39346985 -16.07583313 4.52624329 -16.84614563 4.66304016 C-17.83098938 4.83964172 -18.81583313 5.01624329 -19.83052063 5.19819641 C-20.80505188 5.37221985 -21.77958313 5.54624329 -22.78364563 5.72554016 C-25.07773858 6.1644937 -27.32344034 6.66418233 -29.58052063 7.26069641 C-29.08552063 8.74569641 -29.08552063 8.74569641 -28.58052063 10.26069641 C-30.185444 11.86561978 -32.1885933 11.72784689 -34.39302063 12.07319641 C-38.69202694 12.88155657 -40.77315668 13.77956511 -43.58052063 17.26069641 C-44.57052063 17.59069641 -45.56052063 17.92069641 -46.58052063 18.26069641 C-47.21989563 19.23007141 -47.85927063 20.19944641 -48.51802063 21.19819641 C-50.59690858 24.28503003 -51.4030638 24.77788322 -54.58052063 26.26069641 C-55.04458313 27.18882141 -55.04458313 27.18882141 -55.51802063 28.13569641 C-56.58052063 30.26069641 -56.58052063 30.26069641 -59.14302063 32.07319641 C-62.37002899 34.96922956 -62.05536466 37.05944862 -62.58052063 41.26069641 C-64.51802063 43.69819641 -64.51802063 43.69819641 -66.58052063 45.26069641 C-67.24052063 45.26069641 -67.90052063 45.26069641 -68.58052063 45.26069641 C-68.91052063 46.58069641 -69.24052063 47.90069641 -69.58052063 49.26069641 C-70.24052063 49.26069641 -70.90052063 49.26069641 -71.58052063 49.26069641 C-66.30912672 31.46639717 -51.15645289 16.62750068 -35.21113586 7.96064758 C-23.68514788 2.03046904 -12.93237487 -0.04241431 0 0 Z " fill="#0367BF" transform="translate(115.58052062988281,44.73930358886719)"/>
<path d="M0 0 C0 0.99 0 1.98 0 3 C-1.33333333 4.33333333 -2.66666667 5.66666667 -4 7 C-5.25436187 9.63222962 -5.25436187 9.63222962 -6 12 C-6.66 12 -7.32 12 -8 12 C-8.33 12.99 -8.66 13.98 -9 15 C-10.99439481 16.0111327 -12.99530743 17.00944072 -15 18 C-17.62558023 20.18374036 -17.62558023 20.18374036 -20.1315918 22.75927734 C-20.60557404 23.22960892 -21.07955627 23.69994049 -21.56790161 24.18452454 C-23.11914152 25.72771593 -24.65933829 27.2814174 -26.19921875 28.8359375 C-27.28153715 29.91877515 -28.36437551 31.0010933 -29.44770813 32.08291626 C-31.71086523 34.34616282 -33.96878855 36.6144641 -36.22290039 38.88671875 C-39.10605527 41.79257323 -42.00016629 44.68721058 -44.89805889 47.5783596 C-47.13327361 49.81022616 -49.36345771 52.04706431 -51.59208107 54.28551102 C-52.65723692 55.35450348 -53.72372936 56.42216593 -54.79160118 57.48844528 C-56.2849305 58.98140195 -57.77156992 60.48071919 -59.2565918 61.98193359 C-60.10231247 62.83226166 -60.94803314 63.68258972 -61.81938171 64.5586853 C-63.92982663 66.92143729 -65.42718368 69.26243541 -67 72 C-68.31328657 73.35308313 -69.64499081 74.68870078 -71 76 C-71.66 76.99 -72.32 77.98 -73 79 C-73.66 78.67 -74.32 78.34 -75 78 C-75.28875 79.0725 -75.5775 80.145 -75.875 81.25 C-77.58823529 86.96078431 -77.58823529 86.96078431 -79 89 C-81.82194921 90.12877968 -83.87820239 90 -87 90 C-87.0825 90.78375 -87.165 91.5675 -87.25 92.375 C-87.4975 93.24125 -87.745 94.1075 -88 95 C-89.33333333 95.66666667 -90.66666667 96.33333333 -92 97 C-92.81171228 99.55519921 -92.81171228 99.55519921 -93 102 C-93.99 102 -94.98 102 -96 102 C-98.16976546 103.82260298 -99.40540668 105.60811001 -101 108 C-101.99 108.33 -102.98 108.66 -104 109 C-105.01187895 110.65948148 -106.0126546 112.32580562 -107 114 C-107.66 114 -108.32 114 -109 114 C-109.226875 114.598125 -109.45375 115.19625 -109.6875 115.8125 C-111 118 -111 118 -113.5625 119.4375 C-116.25430285 120.79062712 -116.25430285 120.79062712 -116.8125 123.6875 C-116.9053125 124.8321875 -116.9053125 124.8321875 -117 126 C-117.81726563 125.835 -118.63453125 125.67 -119.4765625 125.5 C-125.01659035 126.28616803 -127.66598324 130.02940701 -131.375 134 C-132.11105469 134.763125 -132.84710938 135.52625 -133.60546875 136.3125 C-135.41789848 138.19554387 -137.21486682 140.09111959 -139 142 C-139.66 141.67 -140.32 141.34 -141 141 C-94.47 94.47 -47.94 47.94 0 0 Z " fill="#85CD37" transform="translate(425,95)"/>
<path d="M0 0 C0.33 0 0.66 0 1 0 C1.33 70.95 1.66 141.9 2 215 C24.11 215.020625 46.22 215.04125 69 215.0625 C79.46267578 215.07615601 79.46267578 215.07615601 90.13671875 215.09008789 C96.40222143 215.09343282 96.40222143 215.09343282 102.66772461 215.09544373 C105.45321452 215.09637342 108.23868528 215.10011318 111.02416992 215.10557556 C114.58328268 215.112462 118.14236779 215.11448608 121.70148659 215.11307228 C123.61582935 215.11350648 125.53016909 215.11885569 127.44450378 215.12442875 C135.7588087 215.11442227 143.08905586 214.75963168 151 212 C151.99 212 152.98 212 154 212 C154 211.34 154 210.68 154 210 C155.32 210 156.64 210 158 210 C158 209.34 158 208.68 158 208 C160.64 207.67 163.28 207.34 166 207 C151.43004889 220.00732868 129.50128298 217.81536673 111.3012619 217.60768127 C107.7611548 217.5729957 104.22130954 217.57187524 100.68103027 217.56762695 C90.39136725 217.53639372 80.10191761 217.4526266 69.8125 217.375 C46.774375 217.25125 23.73625 217.1275 0 217 C0 145.39 0 73.78 0 0 Z " fill="#F8AB16" transform="translate(266,256)"/>
<path d="M0 0 C0.495 0.99 0.495 0.99 1 2 C0.67 2.66 0.34 3.32 0 4 C-0.66 4 -1.32 4 -2 4 C-2 5.65 -2 7.3 -2 9 C-2.66 9 -3.32 9 -4 9 C-4.268125 9.598125 -4.53625 10.19625 -4.8125 10.8125 C-6.03854802 13.07100952 -6.93534581 14.47062652 -9 16 C-11.6875 16.1875 -11.6875 16.1875 -14 16 C-14 16.66 -14 17.32 -14 18 C-14.66 18 -15.32 18 -16 18 C-16 19.65 -16 21.3 -16 23 C-15.01 22.67 -14.02 22.34 -13 22 C-13.33 23.32 -13.66 24.64 -14 26 C-14.639375 25.814375 -15.27875 25.62875 -15.9375 25.4375 C-16.9584375 25.2209375 -16.9584375 25.2209375 -18 25 C-18.495 25.495 -18.495 25.495 -19 26 C-20.66617115 26.04063832 -22.33388095 26.042721 -24 26 C-24 27.65 -24 29.3 -24 31 C-24.99 31.33 -25.98 31.66 -27 32 C-28.20882096 34.00016466 -28.20882096 34.00016466 -29 36 C-29.66 36 -30.32 36 -31 36 C-31 36.66 -31 37.32 -31 38 C-32.66666667 39.33333333 -34.33333333 40.66666667 -36 42 C-36.89611534 43.06593312 -37.77130609 44.14979873 -38.625 45.25 C-39.40875 46.1575 -40.1925 47.065 -41 48 C-41.99 48 -42.98 48 -44 48 C-44 48.99 -44 49.98 -44 51 C-44.99 51.495 -44.99 51.495 -46 52 C-46.33 52.99 -46.66 53.98 -47 55 C-49.60242414 56.64820195 -50.86248779 57 -54 57 C-54.66 58.98 -55.32 60.96 -56 63 C-57.65 63 -59.3 63 -61 63 C-59.80318981 58.06315795 -56.75155558 55.80525502 -53.015625 52.6875 C-50.52067766 50.59870688 -48.27089195 48.32911995 -46 46 C-44.83468599 44.83198224 -43.66792182 43.66541016 -42.5 42.5 C-41.90058594 41.89929688 -41.30117187 41.29859375 -40.68359375 40.6796875 C-39.31933685 39.31859593 -37.94275584 37.96986467 -36.5625 36.625 C-34.34311883 34.35148758 -32.2692785 32.02269041 -30.1875 29.625 C-20.72541469 18.90847156 -20.72541469 18.90847156 -15 17 C-15 16.34 -15 15.68 -15 15 C-14.34 15 -13.68 15 -13 15 C-12.73960937 14.4121875 -12.47921875 13.824375 -12.2109375 13.21875 C-10.92530517 10.86313979 -9.55445256 9.35362255 -7.625 7.5 C-7.00753906 6.90058594 -6.39007813 6.30117188 -5.75390625 5.68359375 C-4.88572266 4.85021484 -4.88572266 4.85021484 -4 4 C-3.195625 3.195625 -2.39125 2.39125 -1.5625 1.5625 C-1.046875 1.046875 -0.53125 0.53125 0 0 Z " fill="#ED4C23" transform="translate(198,322)"/>
<path d="M0 0 C1.32 0.33 2.64 0.66 4 1 C3.43410156 1.55429687 2.86820313 2.10859375 2.28515625 2.6796875 C1.18494141 3.76636719 1.18494141 3.76636719 0.0625 4.875 C-0.66839844 5.59429687 -1.39929688 6.31359375 -2.15234375 7.0546875 C-4.05667999 8.87027192 -4.05667999 8.87027192 -5 11 C-5.66 11 -6.32 11 -7 11 C-7 11.66 -7 12.32 -7 13 C-8.57421875 14.55078125 -8.57421875 14.55078125 -10.6875 16.3125 C-14.68383202 19.71393145 -18.36822525 23.30802385 -22.01171875 27.0859375 C-22.72972656 27.82070313 -23.44773438 28.55546875 -24.1875 29.3125 C-24.86167969 30.00988281 -25.53585938 30.70726562 -26.23046875 31.42578125 C-28 33 -28 33 -30 33 C-30.20625 33.556875 -30.4125 34.11375 -30.625 34.6875 C-32.55000774 37.92501302 -35.03850902 39.68231141 -38 42 C-37.125 37.25 -37.125 37.25 -36 35 C-35.34 35 -34.68 35 -34 35 C-31.66608797 32.21885944 -31.66608797 32.21885944 -32.375 29.3125 C-32.58125 28.549375 -32.7875 27.78625 -33 27 C-31.35 26.67 -29.7 26.34 -28 26 C-27.34 23.03 -26.68 20.06 -26 17 C-23.36 17.33 -20.72 17.66 -18 18 C-17.34 16.02 -16.68 14.04 -16 12 C-13.525 12.495 -13.525 12.495 -11 13 C-11 11.02 -11 9.04 -11 7 C-9.865625 6.71125 -8.73125 6.4225 -7.5625 6.125 C-6.386875 5.75375 -5.21125 5.3825 -4 5 C-3.67 4.34 -3.34 3.68 -3 3 C-2.34 3 -1.68 3 -1 3 C-0.67 2.01 -0.34 1.02 0 0 Z " fill="#0E80D3" transform="translate(190,326)"/>
<path d="M0 0 C0 71.28 0 142.56 0 216 C-0.33 216 -0.66 216 -1 216 C-1.33 146.04 -1.66 76.08 -2 4 C-2.33 4.66 -2.66 5.32 -3 6 C-4.32 5.67 -5.64 5.34 -7 5 C-2.25 0 -2.25 0 0 0 Z " fill="#EE5606" transform="translate(266,256)"/>
<path d="M0 0 C0.66 0 1.32 0 2 0 C2 0.66 2 1.32 2 2 C2.66 2 3.32 2 4 2 C3.42164796 5.15229086 2.59031477 6.78085538 0.31616211 9.02441406 C-0.24434341 9.58469299 -0.80484894 10.14497192 -1.38233948 10.722229 C-1.98964401 11.31404968 -2.59694855 11.90587036 -3.22265625 12.515625 C-3.84273056 13.13145447 -4.46280487 13.74728394 -5.10166931 14.3817749 C-7.08167905 16.34500635 -9.07186919 18.29754436 -11.0625 20.25 C-12.40758535 21.58003748 -13.75199488 22.91075879 -15.09570312 24.2421875 C-18.38934906 27.50277537 -21.69216339 30.75381188 -25 34 C-25.33 33.34 -25.66 32.68 -26 32 C-26.66 31.67 -27.32 31.34 -28 31 C-27.67 30.34 -27.34 29.68 -27 29 C-28.32 29 -29.64 29 -31 29 C-31 28.34 -31 27.68 -31 27 C-29.329375 26.87625 -29.329375 26.87625 -27.625 26.75 C-26.42875 26.5025 -25.2325 26.255 -24 26 C-22.77472052 24.04978917 -22.77472052 24.04978917 -22 22 C-19.04680182 20.76156206 -18.12561472 20.95812843 -15 22 C-15 21.01 -15 20.02 -15 19 C-14.01 19 -13.02 19 -12 19 C-12.33 18.34 -12.66 17.68 -13 17 C-13.99 16.67 -14.98 16.34 -16 16 C-14.68 14.35 -13.36 12.7 -12 11 C-9 12 -9 12 -7 14 C-7 12.68 -7 11.36 -7 10 C-7.66 10 -8.32 10 -9 10 C-7.125 5.25 -7.125 5.25 -6 3 C-4.34795544 2.29788106 -2.68076231 1.63028587 -1 1 C-0.67 0.67 -0.34 0.34 0 0 Z " fill="#0882CD" transform="translate(416,96)"/>
<path d="M0 0 C2.64 0 5.28 0 8 0 C8 0.66 8 1.32 8 2 C12.29 2.33 16.58 2.66 21 3 C21.33 2.34 21.66 1.68 22 1 C23.9375 1.375 23.9375 1.375 26 2 C26.33 2.66 26.66 3.32 27 4 C101.25 4.495 101.25 4.495 177 5 C177 5.33 177 5.66 177 6 C156.23277062 6.09363583 135.46557629 6.16407328 114.69817829 6.20724869 C105.05449153 6.22783281 95.4109363 6.25587366 85.76733398 6.30175781 C77.35737378 6.34175307 68.94750889 6.36746294 60.53745621 6.37635398 C56.08852882 6.38154733 51.63987396 6.39366609 47.19103432 6.42292023 C42.99426656 6.45029039 38.79788079 6.45840191 34.60103226 6.45243073 C33.06970448 6.45352139 31.53836247 6.46134579 30.0071125 6.4768219 C19.51250397 6.57758904 8.99054445 5.9936963 0 0 Z " fill="#D94B29" transform="translate(89,467)"/>
<path d="M0 0 C0 0.99 0 1.98 0 3 C-1.33333333 4.33333333 -2.66666667 5.66666667 -4 7 C-5.25436187 9.63222962 -5.25436187 9.63222962 -6 12 C-6.66 12 -7.32 12 -8 12 C-8.33 12.99 -8.66 13.98 -9 15 C-10.99439481 16.0111327 -12.99530743 17.00944072 -15 18 C-17.62558023 20.18374036 -17.62558023 20.18374036 -20.1315918 22.75927734 C-20.60557404 23.22960892 -21.07955627 23.69994049 -21.56790161 24.18452454 C-23.11914152 25.72771593 -24.65933829 27.2814174 -26.19921875 28.8359375 C-27.28153715 29.91877515 -28.36437551 31.0010933 -29.44770813 32.08291626 C-31.71086523 34.34616282 -33.96878855 36.6144641 -36.22290039 38.88671875 C-39.10605527 41.79257323 -42.00016629 44.68721058 -44.89805889 47.5783596 C-47.13327361 49.81022616 -49.36345771 52.04706431 -51.59208107 54.28551102 C-52.65723692 55.35450348 -53.72372936 56.42216593 -54.79160118 57.48844528 C-56.2849305 58.98140195 -57.77156992 60.48071919 -59.2565918 61.98193359 C-60.10231247 62.83226166 -60.94803314 63.68258972 -61.81938171 64.5586853 C-63.92982663 66.92143729 -65.42718368 69.26243541 -67 72 C-68.31328657 73.35308313 -69.64499081 74.68870078 -71 76 C-71.66 76.99 -72.32 77.98 -73 79 C-74.33074878 79.34350629 -75.66433721 79.67612688 -77 80 C-78.74183061 81.38170728 -78.74183061 81.38170728 -80.25 83.0625 C-80.77078125 83.61035156 -81.2915625 84.15820312 -81.828125 84.72265625 C-82.40820312 85.35494141 -82.40820312 85.35494141 -83 86 C-83.66 85.67 -84.32 85.34 -85 85 C-56.95 56.95 -28.9 28.9 0 0 Z " fill="#7BD274" transform="translate(425,95)"/>
<path d="M0 0 C0.33 0 0.66 0 1 0 C1.11718179 19.54193833 1.20515793 39.08380463 1.25906086 58.62602234 C1.28476235 67.7013224 1.31975733 76.77640323 1.37719727 85.8515625 C1.42728052 93.76823492 1.45934944 101.68474844 1.47044247 109.6015749 C1.47691941 113.78742985 1.49197029 117.97283053 1.52865028 122.15853882 C1.56300558 126.11161147 1.57297493 130.06404991 1.56553841 134.01725769 C1.56689556 135.45542366 1.5765903 136.89361453 1.59602737 138.33164978 C1.73440461 149.11329114 -0.34942459 157.98584449 -4 168 C-5.00663864 164.33569602 -5.1005868 161.0586797 -5.0625 157.25 C-5.05347656 156.07953125 -5.04445313 154.9090625 -5.03515625 153.703125 C-5.02355469 152.81109375 -5.01195312 151.9190625 -5 151 C-3.68 151.33 -2.36 151.66 -1 152 C-0.67 101.84 -0.34 51.68 0 0 Z " fill="#E5BB1D" transform="translate(472,256)"/>
<path d="M0 0 C-2.63669667 1.48314188 -5.24270879 2.76218395 -8 4 C-8.93763184 4.4297966 -9.87526367 4.8595932 -10.84130859 5.30241394 C-24.80493068 10.6386596 -39.58718119 9.64521764 -54.29623413 9.50696969 C-58.23325228 9.47537496 -62.1702965 9.47274971 -66.10742188 9.46684265 C-73.53733854 9.45140023 -80.96688036 9.41050433 -88.39663315 9.3600952 C-96.86595546 9.30389971 -105.33529717 9.27663989 -113.80475998 9.25161803 C-131.20338889 9.1995779 -148.60165461 9.11182604 -166 9 C-166 8.67 -166 8.34 -166 8 C-165.30131302 7.99576806 -164.60262604 7.99153612 -163.88276672 7.98717594 C-146.86405765 7.88376744 -129.84539009 7.77511466 -112.82675171 7.66066074 C-104.59659203 7.605437 -96.36642801 7.55197317 -88.13623047 7.50268555 C-80.96086864 7.45971045 -73.78553733 7.4133995 -66.61022282 7.36312145 C-62.81271914 7.33662748 -59.01522109 7.31177779 -55.21768188 7.29092598 C-51.63903785 7.27122331 -48.06045131 7.24704056 -44.48185921 7.21950912 C-42.5511127 7.20579626 -40.62033475 7.19675522 -38.68955994 7.18788147 C-30.34751774 7.11771203 -22.93596872 6.76836118 -15 4 C-14.01 4 -13.02 4 -12 4 C-12 3.34 -12 2.68 -12 2 C-10.68 2 -9.36 2 -8 2 C-8 1.34 -8 0.68 -8 0 C-4.90645403 -0.99435406 -3.09720845 -0.87840996 0 0 Z " fill="#E7BA33" transform="translate(432,464)"/>
<path d="M0 0 C1.65 0 3.3 0 5 0 C5.375 2.1875 5.375 2.1875 5 5 C2.4375 7.3125 2.4375 7.3125 0.77734375 8.5546875 C-1.23109936 10.18792695 -2.81997813 11.96936748 -4.5 13.9375 C-7.52672924 17.47427674 -10.58939715 20.82734619 -14 24 C-14.66 24 -15.32 24 -16 24 C-16.2475 24.598125 -16.495 25.19625 -16.75 25.8125 C-18.16370012 28.28647521 -19.65055383 29.43370255 -22 31 C-22.33 28.36 -22.66 25.72 -23 23 C-22.34 23 -21.68 23 -21 23 C-21 22.34 -21 21.68 -21 21 C-20.01 21 -19.02 21 -18 21 C-17.67 20.01 -17.34 19.02 -17 18 C-15.34795544 17.29788106 -13.68076231 16.63028587 -12 16 C-11.67 15.34 -11.34 14.68 -11 14 C-11.66 14 -12.32 14 -13 14 C-12.67 13.01 -12.34 12.02 -12 11 C-10.35 10.67 -8.7 10.34 -7 10 C-6.67 9.01 -6.34 8.02 -6 7 C-5.34 7 -4.68 7 -4 7 C-4 6.34 -4 5.68 -4 5 C-2.02 4.67 -0.04 4.34 2 4 C1.34 2.68 0.68 1.36 0 0 Z " fill="#0E7FD3" transform="translate(220,291)"/>
<path d="M0 0 C-1.98 0.33 -3.96 0.66 -6 1 C-6 1.66 -6 2.32 -6 3 C-6.74765625 3.13277344 -7.4953125 3.26554687 -8.265625 3.40234375 C-9.25046875 3.57894531 -10.2353125 3.75554688 -11.25 3.9375 C-12.22453125 4.11152344 -13.1990625 4.28554688 -14.203125 4.46484375 C-16.49721795 4.90379729 -18.74291971 5.40348592 -21 6 C-20.505 7.485 -20.505 7.485 -20 9 C-21.60492337 10.60492337 -23.60807267 10.46715048 -25.8125 10.8125 C-30.11150632 11.62086016 -32.19263605 12.5188687 -35 16 C-35.99 16.33 -36.98 16.66 -38 17 C-38.639375 17.969375 -39.27875 18.93875 -39.9375 19.9375 C-42.01638795 23.02433362 -42.82254317 23.51718681 -46 25 C-46.4640625 25.928125 -46.4640625 25.928125 -46.9375 26.875 C-48 29 -48 29 -50.5625 30.8125 C-53.78950836 33.70853315 -53.47484403 35.79875221 -54 40 C-55.9375 42.4375 -55.9375 42.4375 -58 44 C-58.66 44 -59.32 44 -60 44 C-60.33 45.32 -60.66 46.64 -61 48 C-61.66 48 -62.32 48 -63 48 C-57.72860609 30.20570076 -42.57593226 15.36680427 -26.63061523 6.69995117 C-20.7928542 3.69639388 -14.66510456 1.201593 -8.25 -0.25 C-7.53328125 -0.42015625 -6.8165625 -0.5903125 -6.078125 -0.765625 C-3.79114449 -1.02355513 -2.18098277 -0.68769727 0 0 Z " fill="#1F7ABB" transform="translate(107,46)"/>
<path d="M0 0 C12.43994446 -0.06972449 24.87984189 -0.12292494 37.31994247 -0.15543652 C43.09731737 -0.17104591 48.87455789 -0.19219743 54.65185547 -0.22631836 C60.2345231 -0.25908084 65.81706202 -0.27688851 71.39981842 -0.28463173 C73.52231113 -0.29014503 75.64479736 -0.30091065 77.7672348 -0.31719017 C97.24941738 -0.46058504 111.3800709 2.5908586 128 13 C125.50935112 13.68707555 123.62113708 14 121 14 C121 12.68 121 11.36 121 10 C117.04 9.34 113.08 8.68 109 8 C109 7.34 109 6.68 109 6 C108.34 6 107.68 6 107 6 C107 5.34 107 4.68 107 4 C94.47460641 2.07028514 82.18585669 1.66126372 69.53125 1.5859375 C67.51386769 1.56717988 65.49649284 1.54760325 63.47912598 1.5272522 C58.22520394 1.47640948 52.97125659 1.43653091 47.71722412 1.39910889 C42.33355702 1.35876534 36.94999079 1.30781313 31.56640625 1.2578125 C21.04434219 1.16162165 10.52222052 1.07703913 0 1 C0 0.67 0 0.34 0 0 Z " fill="#0365BF" transform="translate(311,45)"/>
<path d="M0 0 C0.99 0.66 1.98 1.32 3 2 C-1.25098563 6.27562353 -5.50518377 10.54801403 -9.76245117 14.81738281 C-11.21159193 16.27156604 -12.65983578 17.72664362 -14.10717773 19.18261719 C-16.18240437 21.26991322 -18.26078891 23.35401792 -20.33984375 25.4375 C-20.99089584 26.09371338 -21.64194794 26.74992676 -22.31272888 27.42602539 C-23.85628826 28.9697789 -25.42548978 30.48782671 -27 32 C-27.33 32 -27.66 32 -28 32 C-28 30.02 -28 28.04 -28 26 C-27.01 25.67 -26.02 25.34 -25 25 C-24.34 25.33 -23.68 25.66 -23 26 C-23.33 24.02 -23.66 22.04 -24 20 C-20.375 17 -20.375 17 -17 17 C-16.67 16.34 -16.34 15.68 -16 15 C-15 14 -15 14 -12 13 C-10.67518454 10.60470331 -10.67518454 10.60470331 -10 8 C-10.33 7.34 -10.66 6.68 -11 6 C-9.35 6 -7.7 6 -6 6 C-5.67 5.01 -5.34 4.02 -5 3 C-4.01 3 -3.02 3 -2 3 C-2 2.34 -2 1.68 -2 1 C-1.34 0.67 -0.68 0.34 0 0 Z " fill="#0D81C9" transform="translate(367,149)"/>
<path d="M0 0 C0.495 0.99 0.495 0.99 1 2 C0.67 2.66 0.34 3.32 0 4 C-0.66 4 -1.32 4 -2 4 C-2 5.65 -2 7.3 -2 9 C-2.66 9 -3.32 9 -4 9 C-4.268125 9.598125 -4.53625 10.19625 -4.8125 10.8125 C-6.03854802 13.07100952 -6.93534581 14.47062652 -9 16 C-11.6875 16.1875 -11.6875 16.1875 -14 16 C-14 16.66 -14 17.32 -14 18 C-14.66 18 -15.32 18 -16 18 C-16 19.65 -16 21.3 -16 23 C-15.01 22.67 -14.02 22.34 -13 22 C-13.33 23.32 -13.66 24.64 -14 26 C-14.7734375 25.690625 -14.7734375 25.690625 -15.5625 25.375 C-19.10138102 24.83055677 -21.88307761 25.32416516 -25 27 C-26.95552914 28.93507381 -28.64606633 30.94620545 -30.32421875 33.125 C-32.08822374 35.09871187 -33.57775588 35.9867737 -36 37 C-35.61328125 36.55269531 -35.2265625 36.10539062 -34.828125 35.64453125 C-34.30734375 35.03996094 -33.7865625 34.43539062 -33.25 33.8125 C-32.69570312 33.16925781 -32.14140625 32.52601563 -31.5703125 31.86328125 C-30.37606583 30.44622736 -29.2369065 28.982542 -28.125 27.5 C-24.49119275 23.22493264 -20.38916422 18.79638807 -15 17 C-15 16.34 -15 15.68 -15 15 C-14.34 15 -13.68 15 -13 15 C-12.73960937 14.4121875 -12.47921875 13.824375 -12.2109375 13.21875 C-10.92530517 10.86313979 -9.55445256 9.35362255 -7.625 7.5 C-7.00753906 6.90058594 -6.39007813 6.30117188 -5.75390625 5.68359375 C-4.88572266 4.85021484 -4.88572266 4.85021484 -4 4 C-3.195625 3.195625 -2.39125 2.39125 -1.5625 1.5625 C-1.046875 1.046875 -0.53125 0.53125 0 0 Z " fill="#CC553E" transform="translate(198,322)"/>
<path d="M0 0 C0.99 0 1.98 0 3 0 C3 1.98 3 3.96 3 6 C3.66 6 4.32 6 5 6 C5.33 5.01 5.66 4.02 6 3 C6.66 3 7.32 3 8 3 C8 3.66 8 4.32 8 5 C9.65 4.67 11.3 4.34 13 4 C7.72898586 10.41069287 1.90871848 16.18590512 -4 22 C-4.33 21.34 -4.66 20.68 -5 20 C-6.32 20 -7.64 20 -9 20 C-8.34 18.35 -7.68 16.7 -7 15 C-6.34 15 -5.68 15 -5 15 C-4.67 14.01 -4.34 13.02 -4 12 C-3.01 12 -2.02 12 -1 12 C-1 12.66 -1 13.32 -1 14 C-0.34 13.67 0.32 13.34 1 13 C1.65213292 10.97536745 1.65213292 10.97536745 2 9 C0.68 9 -0.64 9 -2 9 C-2 8.34 -2 7.68 -2 7 C-1.34 7 -0.68 7 0 7 C0 4.69 0 2.38 0 0 Z " fill="#0783CC" transform="translate(375,128)"/>
<path d="M0 0 C3.36591866 1.44253657 5.51047079 3.33264727 8 6 C6.34136495 10.32504836 3.128959 13.09418825 -0.125 16.25 C-0.68832031 16.80429688 -1.25164062 17.35859375 -1.83203125 17.9296875 C-3.21686028 19.29104485 -4.60783204 20.64614859 -6 22 C-6.99 20.68 -7.98 19.36 -9 18 C-8.67 17.34 -8.34 16.68 -8 16 C-8.66 15.67 -9.32 15.34 -10 15 C-9.01 14.67 -8.02 14.34 -7 14 C-4.75 12.25 -4.75 12.25 -3 10 C-3 8.68 -3 7.36 -3 6 C-1.02 6 0.96 6 3 6 C3 6.66 3 7.32 3 8 C3.66 8 4.32 8 5 8 C4.67 6.68 4.34 5.36 4 4 C3.01 4 2.02 4 1 4 C0.67 2.68 0.34 1.36 0 0 Z " fill="#0A82CD" transform="translate(443,62)"/>
<path d="M0 0 C-0.185625 1.051875 -0.37125 2.10375 -0.5625 3.1875 C-0.96442965 6.69002982 -0.83540628 8.65837488 0 12 C0.52478696 15.38196041 1 18.5767294 1 22 C-7.74310568 10.97347153 -7.74310568 10.97347153 -10 5 C-9.73828125 2.81640625 -9.73828125 2.81640625 -9 1 C-5.84213022 -1.36840234 -3.69270227 -1.02575063 0 0 Z " fill="#0A80CF" transform="translate(55,421)"/>
<path d="M0 0 C0 0.99 0 1.98 0 3 C-1.98 3.99 -1.98 3.99 -4 5 C-4 5.66 -4 6.32 -4 7 C-4.66 7 -5.32 7 -6 7 C-6.38478516 7.89332031 -6.38478516 7.89332031 -6.77734375 8.8046875 C-8.10969687 11.19696371 -9.43368605 12.42728199 -11.5625 14.125 C-14.21025666 16.20903634 -14.21025666 16.20903634 -16 19 C-16.99 19.33 -17.98 19.66 -19 20 C-19.474375 20.94875 -19.94875 21.8975 -20.4375 22.875 C-22.00262084 26.00524169 -23.02162369 27.27062021 -26 29 C-26.66 29 -27.32 29 -28 29 C-28 29.66 -28 30.32 -28 31 C-28.66 31 -29.32 31 -30 31 C-30.226875 31.53625 -30.45375 32.0725 -30.6875 32.625 C-32.43382056 35.78500863 -34.6402849 38.2676983 -37 41 C-37.66 40.67 -38.32 40.34 -39 40 C-38.25943359 39.22076172 -38.25943359 39.22076172 -37.50390625 38.42578125 C-36.86324219 37.72839844 -36.22257812 37.03101563 -35.5625 36.3125 C-34.60537109 35.28576172 -34.60537109 35.28576172 -33.62890625 34.23828125 C-31.83778902 31.77710578 -31.37201442 29.99183426 -31 27 C-29.576875 26.6596875 -29.576875 26.6596875 -28.125 26.3125 C-24.8562652 25.31930104 -24.8562652 25.31930104 -23.6875 22.625 C-23.460625 21.75875 -23.23375 20.8925 -23 20 C-22.79375 19.236875 -22.5875 18.47375 -22.375 17.6875 C-22.25125 17.130625 -22.1275 16.57375 -22 16 C-20.02 16 -18.04 16 -16 16 C-16 15.01 -16 14.02 -16 13 C-14.8553125 12.5978125 -14.8553125 12.5978125 -13.6875 12.1875 C-11.08247899 11.0364442 -9.75636995 10.19546244 -8 8 C-7.67 7.01 -7.34 6.02 -7 5 C-5.03852126 3.61061923 -3.03833424 2.2739589 -1 1 C-0.67 0.67 -0.34 0.34 0 0 Z " fill="#4372AA" transform="translate(119,401)"/>
<path d="M0 0 C0.66 0 1.32 0 2 0 C2.99 1.32 3.98 2.64 5 4 C-1.27 10.27 -7.54 16.54 -14 23 C-14.66 21.68 -15.32 20.36 -16 19 C-14.68 19 -13.36 19 -12 19 C-12 17.68 -12 16.36 -12 15 C-10.68945377 13.64426252 -9.35251497 12.31387169 -8 11 C-7.505 9.96875 -7.01 8.9375 -6.5 7.875 C-4.86408665 4.73949941 -4.10209515 4.34424123 -1 3 C-0.67 2.01 -0.34 1.02 0 0 Z " fill="#0C80CE" transform="translate(333,179)"/>
<path d="M0 0 C0 0.99 0 1.98 0 3 C-0.33 3.33 -0.66 3.66 -1 4 C-1.13568319 7.66344611 -1.16461426 10.50615721 0 14 C0.99 14 1.98 14 3 14 C3 15.32 3 16.64 3 18 C3.763125 17.938125 4.52625 17.87625 5.3125 17.8125 C8 18 8 18 9.8125 19.375 C11 21 11 21 11 23 C6.61631654 21.70496796 3.12583402 20.01031194 -0.6875 17.5 C-2.08548828 16.58734375 -2.08548828 16.58734375 -3.51171875 15.65625 C-5.34162872 14.43822515 -7.17097346 13.21935103 -9 12 C-8.45015228 8.12488273 -6.72444669 6.40423494 -3.9375 3.75 C-3.20402344 3.04359375 -2.47054687 2.3371875 -1.71484375 1.609375 C-1.14894531 1.07828125 -0.58304688 0.5471875 0 0 Z " fill="#E74D24" transform="translate(77,444)"/>
<path d="M0 0 C0.33 0.66 0.66 1.32 1 2 C0.67 2.66 0.34 3.32 0 4 C3.465 3.505 3.465 3.505 7 3 C7 3.99 7 4.98 7 6 C8.60875 5.87625 8.60875 5.87625 10.25 5.75 C14 6 14 6 16.4375 8 C17.2109375 8.99 17.2109375 8.99 18 10 C17.67 10.33 17.34 10.66 17 11 C17.99 11.33 18.98 11.66 20 12 C20.6875 14.0625 20.6875 14.0625 21 16 C22.32 16.33 23.64 16.66 25 17 C24.67 17.99 24.34 18.98 24 20 C23.14277344 19.39671875 22.28554688 18.7934375 21.40234375 18.171875 C12.87107519 12.19399665 5.08993955 7.02011796 -5 4 C-5 3.34 -5 2.68 -5 2 C-3.35 1.34 -1.7 0.68 0 0 Z " fill="#E9F5F2" transform="translate(422,44)"/>
<path d="M0 0 C0 3 0 3 -1.9375 5 C-2.618125 5.66 -3.29875 6.32 -4 7 C-4.33 7.99 -4.66 8.98 -5 10 C-5.66 10 -6.32 10 -7 10 C-7.2475 10.53625 -7.495 11.0725 -7.75 11.625 C-10.43506118 16.72661623 -13.49443562 21.35263836 -18 25 C-21.3125 25.3125 -21.3125 25.3125 -24 25 C-19.18132753 19.19108254 -13.98743592 13.86934448 -8.625 8.5625 C-7.79355469 7.73556641 -6.96210938 6.90863281 -6.10546875 6.05664062 C-4.0725896 4.03544469 -2.03740037 2.01663665 0 0 Z " fill="#85CE3A" transform="translate(450,70)"/>
<path d="M0 0 C0 3 0 3 -2.58984375 5.91796875 C-3.69809409 7.01557563 -4.81434945 8.10514493 -5.9375 9.1875 C-6.50146484 9.74630859 -7.06542969 10.30511719 -7.64648438 10.88085938 C-11.84609661 15 -11.84609661 15 -13 15 C-13.56114388 9.50079 -12.71074674 6.64533747 -9.36328125 2.44921875 C-6.32514384 -0.78043448 -4.18702747 -1.49536695 0 0 Z " fill="#0983CB" transform="translate(281,237)"/>
<path d="M0 0 C0.33 0 0.66 0 1 0 C0.85957123 1.64630328 0.71250671 3.29204179 0.5625 4.9375 C0.48128906 5.85402344 0.40007812 6.77054687 0.31640625 7.71484375 C0 10 0 10 -1 11 C-1.36760731 13.32817964 -1.70241581 15.6618385 -2 18 C-2.66 18 -3.32 18 -4 18 C-4.06058594 18.69867188 -4.12117188 19.39734375 -4.18359375 20.1171875 C-4.26738281 21.02726562 -4.35117187 21.93734375 -4.4375 22.875 C-4.51871094 23.77992188 -4.59992188 24.68484375 -4.68359375 25.6171875 C-5 28 -5 28 -6 30 C-6.66 30 -7.32 30 -8 30 C-8.33 30.99 -8.66 31.98 -9 33 C-11.475 33.495 -11.475 33.495 -14 34 C-14 34.66 -14 35.32 -14 36 C-14.66 35.67 -15.32 35.34 -16 35 C-15.48050781 34.20078125 -14.96101563 33.4015625 -14.42578125 32.578125 C-7.86506371 22.2459044 -3.22407149 11.84780743 0 0 Z " fill="#F9F6E6" transform="translate(472,408)"/>
<path d="M0 0 C1.2574753 3.56943462 0.68936739 5.73255992 -0.40551758 9.30175781 C-2.34458842 16.59680756 -2.47755734 23.66591631 -2.51171875 31.171875 C-2.5286103 32.58963528 -2.54676635 34.007381 -2.56611633 35.42510986 C-2.6131379 39.114008 -2.64325374 42.80284711 -2.66955566 46.49194336 C-2.69960611 50.27339336 -2.7460506 54.05464064 -2.79101562 57.8359375 C-2.87650248 65.22385665 -2.9440869 72.61179146 -3 80 C-3.33 80 -3.66 80 -4 80 C-4.09327392 71.48886032 -4.16405248 62.97793934 -4.20724869 54.46641254 C-4.22799585 50.51282321 -4.25607296 46.55958723 -4.30175781 42.60620117 C-4.34568168 38.7806324 -4.36923347 34.95540037 -4.37950897 31.12959862 C-4.38681795 29.68055111 -4.4010868 28.23151901 -4.42292023 26.78261757 C-4.5610088 17.22616228 -3.39416073 9.00044305 0 0 Z " fill="#1280D0" transform="translate(43,94)"/>
<path d="M0 0 C0.66 0.66 1.32 1.32 2 2 C3.98356483 2.71408334 5.98315437 3.38617742 8 4 C3.59156563 9.29012124 -1.07559794 14.18808428 -6 19 C-6.33 17.68 -6.66 16.36 -7 15 C-6.34 14.67 -5.68 14.34 -5 14 C-4.835 13.34 -4.67 12.68 -4.5 12 C-4.335 11.34 -4.17 10.68 -4 10 C-3.34 9.67 -2.68 9.34 -2 9 C-2 8.01 -2 7.02 -2 6 C-1.36893571 3.98848259 -0.70626239 1.98636298 0 0 Z " fill="#0C82C7" transform="translate(310,198)"/>
<path d="M0 0 C-1.98 0.33 -3.96 0.66 -6 1 C-6 1.66 -6 2.32 -6 3 C-6.74765625 3.13277344 -7.4953125 3.26554687 -8.265625 3.40234375 C-9.74289063 3.66724609 -9.74289063 3.66724609 -11.25 3.9375 C-12.22453125 4.11152344 -13.1990625 4.28554688 -14.203125 4.46484375 C-16.49721795 4.90379729 -18.74291971 5.40348592 -21 6 C-20.67 6.99 -20.34 7.98 -20 9 C-21.60492337 10.60492337 -23.60807267 10.46715048 -25.8125 10.8125 C-30.17746442 11.63093083 -32.0489348 12.61173996 -35 16 C-37.75 16.75 -37.75 16.75 -40 17 C-36.43723065 13.14872014 -32.79571826 10.41423505 -28.1875 7.875 C-27.56657471 7.52808105 -26.94564941 7.18116211 -26.3059082 6.82373047 C-18.86100186 2.73209633 -8.63413009 -2.72247345 0 0 Z " fill="#2C82C0" transform="translate(107,46)"/>
<path d="M0 0 C3.61497739 1.47158371 5.40591511 3.41462331 7.75 6.5 C8.36359375 7.2940625 8.9771875 8.088125 9.609375 8.90625 C11 11 11 11 11 13 C10.34 13 9.68 13 9 13 C9 12.34 9 11.68 9 11 C8.34 11 7.68 11 7 11 C7 10.01 7 9.02 7 8 C2.97007218 8.55312735 -1.02022924 9.1558062 -5 10 C-5 4.69520066 -3.4637943 3.81017373 0 0 Z " fill="#8CC907" transform="translate(451,70)"/>
<path d="M0 0 C14.14964428 0.65205734 25.46805716 5.10770689 37 13 C34.50935112 13.68707555 32.62113708 14 30 14 C30 12.68 30 11.36 30 10 C24.06 9.01 24.06 9.01 18 8 C18 7.34 18 6.68 18 6 C17.34 6 16.68 6 16 6 C16 5.34 16 4.68 16 4 C10.72 3.34 5.44 2.68 0 2 C0 1.34 0 0.68 0 0 Z " fill="#237BBC" transform="translate(402,45)"/>
<path d="M0 0 C1.9375 0.8125 1.9375 0.8125 4 2 C4.33 2.99 4.66 3.98 5 5 C6.32 5.33 7.64 5.66 9 6 C5.37 9.63 1.74 13.26 -2 17 C-2.99 15.68 -3.98 14.36 -5 13 C-4.01 12.67 -3.02 12.34 -2 12 C-1.34 12.33 -0.68 12.66 0 13 C-0.33 10.69 -0.66 8.38 -1 6 C-0.34 5.67 0.32 5.34 1 5 C1.33 4.01 1.66 3.02 2 2 C1.34 2 0.68 2 0 2 C0 1.34 0 0.68 0 0 Z " fill="#0B82C8" transform="translate(286,220)"/>
<path d="M0 0 C0.99 0 1.98 0 3 0 C3 0.66 3 1.32 3 2 C3.99 2.33 4.98 2.66 6 3 C1.71 7.29 -2.58 11.58 -7 16 C-7.66 14.68 -8.32 13.36 -9 12 C-7.71034824 10.62437146 -6.37310707 9.29233607 -5 8 C-4.34 8 -3.68 8 -3 8 C-2.67 7.34 -2.34 6.68 -2 6 C-2.66 6 -3.32 6 -4 6 C-3.67 4.68 -3.34 3.36 -3 2 C-2.01 2 -1.02 2 0 2 C0 1.34 0 0.68 0 0 Z " fill="#0D81C8" transform="translate(429,83)"/>
<path d="M0 0 C0.66 0.33 1.32 0.66 2 1 C1.54109375 1.51949219 1.0821875 2.03898437 0.609375 2.57421875 C-2.04683834 5.59315029 -4.68378337 8.60247052 -7.1875 11.75 C-8.9957685 13.99474711 -10.96404677 15.96404677 -13 18 C-13.33 18.66 -13.66 19.32 -14 20 C-14.66 20 -15.32 20 -16 20 C-16.66 21.98 -17.32 23.96 -18 26 C-19.65 26 -21.3 26 -23 26 C-21.80318981 21.06315795 -18.75155558 18.80525502 -15.015625 15.6875 C-12.52067766 13.59870688 -10.27089195 11.32911995 -8 9 C-7.39800781 8.40832031 -6.79601562 7.81664062 -6.17578125 7.20703125 C-5.54027344 6.58183594 -4.90476563 5.95664062 -4.25 5.3125 C-3.65703125 4.73113281 -3.0640625 4.14976562 -2.453125 3.55078125 C-0.90358196 2.04486026 -0.90358196 2.04486026 0 0 Z " fill="#93656B" transform="translate(160,359)"/>
<path d="M0 0 C0 0.99 0 1.98 0 3 C-0.99 3.33 -1.98 3.66 -3 4 C-5.52003857 7.44847383 -5.15901 10.86573995 -5 15 C-6.66666667 15 -8.33333333 15 -10 15 C-10.928125 16.0209375 -10.928125 16.0209375 -11.875 17.0625 C-12.57625 17.701875 -13.2775 18.34125 -14 19 C-16.25 18.75 -16.25 18.75 -18 18 C-15.07724934 13.98121784 -11.72023114 10.91649415 -7.96875 7.7109375 C-5.51853841 5.58158696 -3.26011098 3.32859919 -1 1 C-0.67 0.67 -0.34 0.34 0 0 Z " fill="#BE5A49" transform="translate(233,287)"/>
<path d="M0 0 C0.66 0.99 1.32 1.98 2 3 C1.01 3.33 0.02 3.66 -1 4 C-0.67 6.64 -0.34 9.28 0 12 C-0.99 12 -1.98 12 -3 12 C-3 11.01 -3 10.02 -3 9 C-3.99 9 -4.98 9 -6 9 C-6.33 9.99 -6.66 10.98 -7 12 C-7.99 12 -8.98 12 -10 12 C-10.99 12.495 -10.99 12.495 -12 13 C-10.61536056 9.87250593 -9.00477577 7.7595015 -6.5625 5.375 C-5.96566406 4.78460938 -5.36882812 4.19421875 -4.75390625 3.5859375 C-3 2 -3 2 0 0 Z " fill="#E2502C" transform="translate(255,266)"/>
<path d="M0 0 C0.33 0.66 0.66 1.32 1 2 C0.67 2.66 0.34 3.32 0 4 C-0.66 4 -1.32 4 -2 4 C-2.33 4.99 -2.66 5.98 -3 7 C-3.66 7 -4.32 7 -5 7 C-5.0825 7.78375 -5.165 8.5675 -5.25 9.375 C-6 12 -6 12 -7.875 13.0625 C-8.57625 13.371875 -9.2775 13.68125 -10 14 C-10.474375 14.639375 -10.94875 15.27875 -11.4375 15.9375 C-13.31096541 18.41047434 -15.35651772 19.41391063 -18 21 C-19.78344178 23.06954847 -19.78344178 23.06954847 -21 25 C-21 21 -21 21 -19.07226562 18.61816406 C-18.19248047 17.75932617 -17.31269531 16.90048828 -16.40625 16.015625 C-15.94013306 15.55516785 -15.47401611 15.09471069 -14.99377441 14.62030029 C-13.5049818 13.15387258 -12.00288278 11.70197017 -10.5 10.25 C-9.48737217 9.25743702 -8.47564185 8.2639575 -7.46484375 7.26953125 C-4.98688309 4.83563843 -2.49679722 2.41458252 0 0 Z " fill="#8BCA12" transform="translate(408,114)"/>
<path d="M0 0 C0.66 0.33 1.32 0.66 2 1 C-0.36797991 3.61724095 -2.89600354 5.32861729 -6 7 C-6.66 7 -7.32 7 -8 7 C-8 7.66 -8 8.32 -8 9 C-11.96 9.99 -15.92 10.98 -20 12 C-19.67 12.99 -19.34 13.98 -19 15 C-21.97 14.67 -24.94 14.34 -28 14 C-25.06490383 12.04326922 -22.97491365 11.33596719 -19.625 10.375 C-13.21548777 8.33489916 -8.16418598 5.21636881 -2.6171875 1.51171875 C-1.75351562 1.01285156 -0.88984375 0.51398438 0 0 Z " fill="#F7EEBE" transform="translate(440,458)"/>
<path d="M0 0 C0 13.86 0 27.72 0 42 C-0.33 42 -0.66 42 -1 42 C-1.33 29.46 -1.66 16.92 -2 4 C-2.33 4.66 -2.66 5.32 -3 6 C-4.32 5.67 -5.64 5.34 -7 5 C-2.25 0 -2.25 0 0 0 Z " fill="#E1561B" transform="translate(266,256)"/>
<path d="M0 0 C0.33 0.66 0.66 1.32 1 2 C1.66 2 2.32 2 3 2 C3 3.32 3 4.64 3 6 C1.35 6 -0.3 6 -2 6 C-2 6.99 -2 7.98 -2 9 C-1.34 9.33 -0.68 9.66 0 10 C-3.3 10.33 -6.6 10.66 -10 11 C-6.77932365 7.19374613 -3.59755203 3.45918464 0 0 Z " fill="#88CB35" transform="translate(275,245)"/>
<path d="M0 0 C1.65 0.33 3.3 0.66 5 1 C4.28457031 1.55171875 3.56914063 2.1034375 2.83203125 2.671875 C-0.06617425 5.05439979 -2.67801005 7.58038352 -5.3125 10.25 C-6.19550781 11.14203125 -7.07851563 12.0340625 -7.98828125 12.953125 C-8.65214844 13.62859375 -9.31601562 14.3040625 -10 15 C-11.15941038 11.52176885 -10.70820884 9.54104422 -10 6 C-7.525 6.99 -7.525 6.99 -5 8 C-4.67 6.35 -4.34 4.7 -4 3 C-3.34 3 -2.68 3 -2 3 C-1.34 2.01 -0.68 1.02 0 0 Z " fill="#E3F3F2" transform="translate(69,56)"/>
<path d="M0 0 C0 4.61538462 0 4.61538462 -1 7 C-1.78375 7.268125 -2.5675 7.53625 -3.375 7.8125 C-6.38615573 9.1746895 -6.58959747 9.70524706 -7.8125 12.625 C-8.204375 13.73875 -8.59625 14.8525 -9 16 C-12 16 -12 16 -15 15 C-11.60955398 10.65599103 -7.97012263 7.08171023 -3.76953125 3.515625 C-1.91655093 1.96792368 -1.91655093 1.96792368 0 0 Z " fill="#C65641" transform="translate(214,306)"/>
<path d="M0 0 C0.12375 0.61875 0.2475 1.2375 0.375 1.875 C0.87197356 4.19120832 0.87197356 4.19120832 3 6 C0.69 8.31 -1.62 10.62 -4 13 C-4.66 12.01 -5.32 11.02 -6 10 C-5.125 6.8125 -5.125 6.8125 -4 4 C-3.34 4 -2.68 4 -2 4 C-2 3.01 -2 2.02 -2 1 C-1.34 0.67 -0.68 0.34 0 0 Z " fill="#0C81C5" transform="translate(300,212)"/>
<path d="M0 0 C0.8125 1.6875 0.8125 1.6875 1 4 C-2.67767693 8.98265907 -6.18976585 9.91673601 -12 11 C-8.38748484 6.43951988 -5.01202555 2.98334854 0 0 Z " fill="#8EC810" transform="translate(288,234)"/>
<path d="M0 0 C0 0.99 0 1.98 0 3 C-1.33333333 4.33333333 -2.66666667 5.66666667 -4 7 C-5.25436187 9.63222962 -5.25436187 9.63222962 -6 12 C-6.66 12 -7.32 12 -8 12 C-8.33 12.99 -8.66 13.98 -9 15 C-11.0625 15.6875 -11.0625 15.6875 -13 16 C-12.42308522 12.83145253 -11.58353113 11.21773541 -9.27734375 8.984375 C-8.73916016 8.45585938 -8.20097656 7.92734375 -7.64648438 7.3828125 C-7.08251953 6.84398438 -6.51855469 6.30515625 -5.9375 5.75 C-5.36966797 5.19570312 -4.80183594 4.64140625 -4.21679688 4.0703125 C-2.81787531 2.70665786 -1.40980886 1.35239583 0 0 Z " fill="#80CF4C" transform="translate(425,95)"/>
<path d="M0 0 C0.66 0 1.32 0 2 0 C2 0.99 2 1.98 2 3 C2.66 3.66 3.32 4.32 4 5 C1.69 6.98 -0.62 8.96 -3 11 C-3 10.34 -3 9.68 -3 9 C-3.66 8.67 -4.32 8.34 -5 8 C-4.34 6.35 -3.68 4.7 -3 3 C-2.34 3 -1.68 3 -1 3 C-0.67 2.01 -0.34 1.02 0 0 Z " fill="#0385CB" transform="translate(264,248)"/>
<path d="M0 0 C0.66 0.33 1.32 0.66 2 1 C1.401875 1.556875 0.80375 2.11375 0.1875 2.6875 C-2.06029718 4.85547727 -2.06029718 4.85547727 -3.25 7.375 C-5.7847263 11.17708945 -9.27484439 13.42512997 -13 16 C-13.66 15.67 -14.32 15.34 -15 15 C-11.60955398 10.65599103 -7.97012263 7.08171023 -3.76953125 3.515625 C-1.91655093 1.96792368 -1.91655093 1.96792368 0 0 Z " fill="#A26060" transform="translate(135,385)"/>
<path d="M0 0 C0.66 0.33 1.32 0.66 2 1 C-1.49359465 4.59634744 -5.11098131 7.83451967 -9 11 C-9.54372951 7.94152152 -10 5.11227195 -10 2 C-9.34 2 -8.68 2 -8 2 C-8 2.66 -8 3.32 -8 4 C-5.64828869 3.40138258 -3.3140622 2.73075648 -1 2 C-0.67 1.34 -0.34 0.68 0 0 Z " fill="#2078C4" transform="translate(242,276)"/>
<path d="M0 0 C0 3 0 3 -2.375 5.5 C-3.674375 6.7375 -3.674375 6.7375 -5 8 C-5.99 9.485 -5.99 9.485 -7 11 C-8.33074878 11.34350629 -9.66433721 11.67612688 -11 12 C-12.74183061 13.38170728 -12.74183061 13.38170728 -14.25 15.0625 C-14.77078125 15.61035156 -15.2915625 16.15820312 -15.828125 16.72265625 C-16.40820312 17.35494141 -16.40820312 17.35494141 -17 18 C-17.66 17.67 -18.32 17.34 -19 17 C-17.44395612 15.38957012 -15.87987244 13.78690632 -14.3125 12.1875 C-13.44238281 11.29417969 -12.57226562 10.40085938 -11.67578125 9.48046875 C-9.21550154 7.1997715 -6.90046057 5.64620735 -4 4 C-2.63015802 2.70420353 -1.2848951 1.38007251 0 0 Z " fill="#81CE45" transform="translate(359,163)"/>
<path d="M0 0 C0.33 0 0.66 0 1 0 C0.85957123 1.64630328 0.71250671 3.29204179 0.5625 4.9375 C0.48128906 5.85402344 0.40007812 6.77054687 0.31640625 7.71484375 C0 10 0 10 -1 11 C-1.36760731 13.32817964 -1.70241581 15.6618385 -2 18 C-2.66 18 -3.32 18 -4 18 C-4.66 19.98 -5.32 21.96 -6 24 C-6.66 24 -7.32 24 -8 24 C-5.33333333 16 -2.66666667 8 0 0 Z " fill="#F8F0C2" transform="translate(472,408)"/>
<path d="M0 0 C0.33 0.66 0.66 1.32 1 2 C-2.75 5 -2.75 5 -5 5 C-5 5.66 -5 6.32 -5 7 C-5.66 7 -6.32 7 -7 7 C-7.226875 7.53625 -7.45375 8.0725 -7.6875 8.625 C-9.43382056 11.78500863 -11.6402849 14.2676983 -14 17 C-14.66 16.67 -15.32 16.34 -16 16 C-15.50628906 15.48050781 -15.01257813 14.96101563 -14.50390625 14.42578125 C-13.86324219 13.72839844 -13.22257812 13.03101563 -12.5625 12.3125 C-11.92441406 11.62800781 -11.28632812 10.94351562 -10.62890625 10.23828125 C-8.83778902 7.77710578 -8.37201442 5.99183426 -8 3 C-7.05125 2.690625 -6.1025 2.38125 -5.125 2.0625 C-2.13919592 1.12605258 -2.13919592 1.12605258 0 0 Z " fill="#6E6A8E" transform="translate(96,425)"/>
<path d="M0 0 C-14.25443787 7.51597633 -14.25443787 7.51597633 -19.265625 6.57421875 C-19.83796875 6.38472656 -20.4103125 6.19523437 -21 6 C-15.375 4 -15.375 4 -12 4 C-12 3.34 -12 2.68 -12 2 C-10.68 2 -9.36 2 -8 2 C-8 1.34 -8 0.68 -8 0 C-4.90645403 -0.99435406 -3.09720845 -0.87840996 0 0 Z " fill="#E7BA25" transform="translate(432,464)"/>
<path d="M0 0 C0.33 0 0.66 0 1 0 C1.04898438 0.58007812 1.09796875 1.16015625 1.1484375 1.7578125 C1.59917964 6.46729074 2.43505248 10.51381712 4 15 C4 16.32 4 17.64 4 19 C3.01 19 2.02 19 1 19 C1 16.69 1 14.38 1 12 C0.34 12 -0.32 12 -1 12 C-0.67 8.04 -0.34 4.08 0 0 Z " fill="#D9EDEE" transform="translate(38,400)"/>
<path d="M0 0 C0.66 0.33 1.32 0.66 2 1 C2 1.99 2 2.98 2 4 C2.66 4.33 3.32 4.66 4 5 C3.34 5 2.68 5 2 5 C1.71125 5.639375 1.4225 6.27875 1.125 6.9375 C0 9 0 9 -2 10 C-2.6875 6.6875 -2.6875 6.6875 -3 3 C-1.5625 1.0625 -1.5625 1.0625 0 0 Z " fill="#0D7DD4" transform="translate(123,389)"/>
<path d="M0 0 C10.55808656 3.07517084 10.55808656 3.07517084 15 5 C15 5.33 15 5.66 15 6 C13.54176788 6.0270043 12.08339325 6.04639787 10.625 6.0625 C9.81289062 6.07410156 9.00078125 6.08570313 8.1640625 6.09765625 C6 6 6 6 4 5 C4 4.34 4 3.68 4 3 C2.68 2.67 1.36 2.34 0 2 C0 1.34 0 0.68 0 0 Z " fill="#F5E5DC" transform="translate(82,465)"/>
<path d="M0 0 C0.99 0.33 1.98 0.66 3 1 C3.20413361 6.73842251 3.27141454 11.60539047 1 17 C-0.13480527 13.39006828 -0.10015767 10.0157673 -0.0625 6.25 C-0.05347656 5.07953125 -0.04445313 3.9090625 -0.03515625 2.703125 C-0.02355469 1.81109375 -0.01195312 0.9190625 0 0 Z " fill="#F2B917" transform="translate(467,407)"/>
<path d="M0 0 C2.475 0.99 2.475 0.99 5 2 C4.67 3.32 4.34 4.64 4 6 C2.35 5.67 0.7 5.34 -1 5 C-1 5.66 -1 6.32 -1 7 C-2.32 7 -3.64 7 -5 7 C-5 5 -5 5 -2.5 2.375 C-1.675 1.59125 -0.85 0.8075 0 0 Z " fill="#ED4C25" transform="translate(120,401)"/>
<path d="M0 0 C1.32 0.66 2.64 1.32 4 2 C3.01 2.495 3.01 2.495 2 3 C1.34786708 5.02463255 1.34786708 5.02463255 1 7 C0.01 7 -0.98 7 -2 7 C-2 6.34 -2 5.68 -2 5 C-2.99 4.67 -3.98 4.34 -5 4 C-4.67 3.01 -4.34 2.02 -4 1 C-3.01 1 -2.02 1 -1 1 C-0.67 0.67 -0.34 0.34 0 0 Z " fill="#0A81CC" transform="translate(439,59)"/>
<path d="M0 0 C0.99 0.33 1.98 0.66 3 1 C2.67 1.66 2.34 2.32 2 3 C1.34 3 0.68 3 0 3 C-0.66 4.98 -1.32 6.96 -2 9 C-3.65 9 -5.3 9 -7 9 C-5.66087415 4.61740632 -3.87774964 2.45906075 0 0 Z " fill="#BF5846" transform="translate(144,376)"/>
<path d="M0 0 C1.65 0.33 3.3 0.66 5 1 C4.07161713 2.31896465 3.13194268 3.62998689 2.1875 4.9375 C1.40439453 6.03384766 1.40439453 6.03384766 0.60546875 7.15234375 C-1 9 -1 9 -4 10 C-3.6875 7.125 -3.6875 7.125 -3 4 C-2.01 3.34 -1.02 2.68 0 2 C0 1.34 0 0.68 0 0 Z " fill="#2679C0" transform="translate(80,435)"/>
<path d="M0 0 C0.33 0.99 0.66 1.98 1 3 C1.99 3.33 2.98 3.66 4 4 C2.6875 5.5 2.6875 5.5 1 7 C0.01 7 -0.98 7 -2 7 C-2.33 7.66 -2.66 8.32 -3 9 C-4 6 -4 6 -4 2 C-2.68 1.34 -1.36 0.68 0 0 Z " fill="#0F80CE" transform="translate(244,269)"/>
<path d="M0 0 C0 3.32058331 -0.43061972 5.08543662 -2 8 C-4.625 9.3125 -4.625 9.3125 -7 10 C-6.34 11.32 -5.68 12.64 -5 14 C-6.32 13.34 -7.64 12.68 -9 12 C-8.45015228 8.12488273 -6.72444669 6.40423494 -3.9375 3.75 C-3.20402344 3.04359375 -2.47054687 2.3371875 -1.71484375 1.609375 C-1.14894531 1.07828125 -0.58304688 0.5471875 0 0 Z " fill="#C05B4F" transform="translate(77,444)"/>
<path d="M0 0 C0.33 0.66 0.66 1.32 1 2 C1.66 2 2.32 2 3 2 C3.66 6.95 4.32 11.9 5 17 C1.02405285 11.69873713 -0.41643829 6.6630126 0 0 Z " fill="#1C76BA" transform="translate(40,406)"/>
<path d="M0 0 C0.99 0.33 1.98 0.66 3 1 C1.625 2.5 1.625 2.5 0 4 C-0.66 4 -1.32 4 -2 4 C-2.2475 4.78375 -2.495 5.5675 -2.75 6.375 C-4.15389099 9.32317108 -5.00675737 9.9024777 -8 11 C-8 9.68 -8 8.36 -8 7 C-7.01 6.67 -6.02 6.34 -5 6 C-4.3162955 4.67532254 -3.65035814 3.34136367 -3 2 C-2.01 1.34 -1.02 0.68 0 0 Z " fill="#1B7EC9" transform="translate(141,376)"/>
<path d="M0 0 C1.65 0 3.3 0 5 0 C3.35 3.3 1.7 6.6 0 10 C-0.66 10 -1.32 10 -2 10 C-2.17942163 6.05272412 -2.09350689 3.4019487 0 0 Z " fill="#E7F3F3" transform="translate(46,80)"/>
<path d="M0 0 C3.18005028 3.88672813 6.10554447 7.89952133 9 12 C6.03 11.505 6.03 11.505 3 11 C2.67 9.35 2.34 7.7 2 6 C1.01 6.495 1.01 6.495 0 7 C-0.93423645 3.98968256 -1.04449911 3.13349732 0 0 Z " fill="#D4EAEE" transform="translate(49,433)"/>
<path d="M0 0 C1 2 1 2 0.875 3.9375 C-0.36186364 6.85296429 -2.26499919 7.53243859 -5 9 C-5.66 9.66 -6.32 10.32 -7 11 C-7 7 -7 7 -5.46875 5.078125 C-4.8190625 4.47484375 -4.169375 3.8715625 -3.5 3.25 C-2.8503125 2.63640625 -2.200625 2.0228125 -1.53125 1.390625 C-1.0259375 0.93171875 -0.520625 0.4728125 0 0 Z " fill="#8CC90D" transform="translate(297,225)"/>
<path d="M0 0 C0.33 1.32 0.66 2.64 1 4 C-1.33343353 7.50015029 -3.16917814 8.40382422 -7 10 C-7.66 9.67 -8.32 9.34 -9 9 C-6.03 6.03 -3.06 3.06 0 0 Z " fill="#8BC910" transform="translate(383,139)"/>
<path d="M0 0 C0.6875 1.75 0.6875 1.75 1 4 C-0.60357433 7.20714865 -1.81625958 7.92794493 -5.1875 9.25 C-6.115625 9.4975 -7.04375 9.745 -8 10 C-8 9.01 -8 8.02 -8 7 C-6.02678947 5.6273318 -4.02456848 4.29572383 -2 3 C-1.34 2.01 -0.68 1.02 0 0 Z " fill="#F9FAEE" transform="translate(443,456)"/>
<path d="M0 0 C2.31 0.33 4.62 0.66 7 1 C5.35 2.98 3.7 4.96 2 7 C0.4375 5.75 0.4375 5.75 -1 4 C-0.6875 1.8125 -0.6875 1.8125 0 0 Z " fill="#157DC8" transform="translate(69,444)"/>
<path d="M0 0 C0.66 0.33 1.32 0.66 2 1 C1.67 1.99 1.34 2.98 1 4 C0.34 4 -0.32 4 -1 4 C-1.33 5.32 -1.66 6.64 -2 8 C-3.98 8.33 -5.96 8.66 -8 9 C-6.6875 6.5 -6.6875 6.5 -5 4 C-4.01 4 -3.02 4 -2 4 C-1.34 2.68 -0.68 1.36 0 0 Z " fill="#C55948" transform="translate(105,416)"/>
<path d="M0 0 C1.32 0.66 2.64 1.32 4 2 C4 1.34 4 0.68 4 0 C5.32 0.33 6.64 0.66 8 1 C7.01 1.33 6.02 1.66 5 2 C4.30062468 3.31647119 3.63270867 4.65022151 3 6 C2.01 6.495 2.01 6.495 1 7 C1 6.34 1 5.68 1 5 C0.34 5 -0.32 5 -1 5 C-0.67 3.35 -0.34 1.7 0 0 Z " fill="#1280CB" transform="translate(143,369)"/>
<path d="M0 0 C1.32 0 2.64 0 4 0 C4 0.66 4 1.32 4 2 C4.99 2.33 5.98 2.66 7 3 C5.02 5.31 3.04 7.62 1 10 C0.67 9.01 0.34 8.02 0 7 C0.66 6.67 1.32 6.34 2 6 C2.33 5.01 2.66 4.02 3 3 C2.01 3 1.02 3 0 3 C0 2.01 0 1.02 0 0 Z " fill="#2A79B5" transform="translate(253,258)"/>
<path d="M0 0 C0.99 0.33 1.98 0.66 3 1 C1.6905332 2.33631236 0.37734515 3.66897925 -0.9375 5 C-1.66839844 5.7425 -2.39929688 6.485 -3.15234375 7.25 C-5 9 -5 9 -6 9 C-6 7.35 -6 5.7 -6 4 C-5.01 4 -4.02 4 -3 4 C-2.67 3.01 -2.34 2.02 -2 1 C-1.34 0.67 -0.68 0.34 0 0 Z " fill="#137DC9" transform="translate(385,132)"/>
<path d="M0 0 C2.31 0.33 4.62 0.66 7 1 C7.33 2.32 7.66 3.64 8 5 C9.32 5.33 10.64 5.66 12 6 C11.67 6.99 11.34 7.98 11 9 C9.16384919 7.69144447 7.33114211 6.37805538 5.5 5.0625 C4.4790625 4.33160156 3.458125 3.60070313 2.40625 2.84765625 C1.6121875 2.23792969 0.818125 1.62820312 0 1 C0 0.67 0 0.34 0 0 Z " fill="#D6EEEF" transform="translate(435,55)"/>
<path d="M0 0 C4.62 0 9.24 0 14 0 C11.14521674 1.90318884 9.58058692 2.4619099 6.3125 3.125 C5.50425781 3.29257812 4.69601563 3.46015625 3.86328125 3.6328125 C3.24839844 3.75398438 2.63351563 3.87515625 2 4 C1.34 2.68 0.68 1.36 0 0 Z " fill="#DEEEEF" transform="translate(89,45)"/>
<path d="M0 0 C0.66 0 1.32 0 2 0 C3.625 2 3.625 2 5 4 C3.35 5.32 1.7 6.64 0 8 C0 7.01 0 6.02 0 5 C-0.66 5 -1.32 5 -2 5 C-1.34 3.35 -0.68 1.7 0 0 Z " fill="#0C84C5" transform="translate(333,179)"/>
<path d="M0 0 C2.475 0.495 2.475 0.495 5 1 C5.99 4.3 6.98 7.6 8 11 C4.31993178 7.61831569 2.0214155 4.57478244 0 0 Z " fill="#1A7BBE" transform="translate(49,432)"/>
<path d="M0 0 C1.34391145 3.72507 0.65810293 6.41088861 -0.3125 10.1875 C-0.70888672 11.78658203 -0.70888672 11.78658203 -1.11328125 13.41796875 C-2 16 -2 16 -4 17 C-3.35729017 11.0870696 -1.80996216 5.65755469 0 0 Z " fill="#3885BB" transform="translate(43,94)"/>
<path d="M0 0 C0.99 0 1.98 0 3 0 C1.96905133 2.57737166 1.4891374 3.76284247 -1.0625 5 C-3.21280279 5.8295822 -3.21280279 5.8295822 -3.75 8.125 C-3.8325 8.74375 -3.915 9.3625 -4 10 C-4.66 10 -5.32 10 -6 10 C-5.34 8.02 -4.68 6.04 -4 4 C-3.01 4 -2.02 4 -1 4 C-0.67 2.68 -0.34 1.36 0 0 Z " fill="#1984CE" transform="translate(50,84)"/>
<path d="M0 0 C5.80205656 5.64524422 5.80205656 5.64524422 8 9 C8 9.66 8 10.32 8 11 C7.34 11 6.68 11 6 11 C6 10.34 6 9.68 6 9 C5.34 9 4.68 9 4 9 C4 8.01 4 7.02 4 6 C2.68 5.67 1.36 5.34 0 5 C0 3.35 0 1.7 0 0 Z " fill="#8FC427" transform="translate(454,72)"/>
<path d="M0 0 C2.64 0 5.28 0 8 0 C8 0.66 8 1.32 8 2 C8.598125 2.12375 9.19625 2.2475 9.8125 2.375 C12 3 12 3 15 5 C9.54520815 4.43179252 5.08940744 3.05362055 0 1 C0 0.67 0 0.34 0 0 Z " fill="#D75437" transform="translate(89,467)"/>
<path d="M0 0 C0.99 0.33 1.98 0.66 3 1 C2.125 5.75 2.125 5.75 1 8 C-0.32 7.67 -1.64 7.34 -3 7 C-3 6.34 -3 5.68 -3 5 C-2.34 4.67 -1.68 4.34 -1 4 C-0.34786708 1.97536745 -0.34786708 1.97536745 0 0 Z " fill="#047DE3" transform="translate(331,174)"/>
<path d="M0 0 C3.36591866 1.44253657 5.51047079 3.33264727 8 6 C7.34 7.32 6.68 8.64 6 10 C4 6.25 4 6.25 4 4 C3.01 4 2.02 4 1 4 C0.67 2.68 0.34 1.36 0 0 Z " fill="#1F7BB4" transform="translate(443,62)"/>
<path d="M0 0 C3.375 0.5625 3.375 0.5625 7 2 C8.4375 5.625 8.4375 5.625 9 9 C4.56620325 6.78310162 2.53363068 4.22271781 0 0 Z " fill="#DEF0E3" transform="translate(447,64)"/>
<path d="M0 0 C0 4.09089094 -1.69866948 5.44918487 -4.33203125 8.4140625 C-6.36890116 10.35075848 -8.29054445 11.28279118 -11 12 C-10.29875 11.319375 -9.5975 10.63875 -8.875 9.9375 C-5.72065663 6.79219487 -2.86065696 3.4111614 0 0 Z " fill="#F7EEC4" transform="translate(455,444)"/>
<path d="M0 0 C1.32 0.33 2.64 0.66 4 1 C2.49776416 5.20626034 -0.28550034 6.73900021 -4 9 C-4 7.68 -4 6.36 -4 5 C-2.68 5 -1.36 5 0 5 C0 3.35 0 1.7 0 0 Z " fill="#F0BA29" transform="translate(447,447)"/>
<path d="M0 0 C0.66 0.33 1.32 0.66 2 1 C1.34 2.65 0.68 4.3 0 6 C-0.66 6 -1.32 6 -2 6 C-2 6.66 -2 7.32 -2 8 C-3.65 8.66 -5.3 9.32 -7 10 C-4.93992341 6.39486597 -2.6486859 3.19668988 0 0 Z " fill="#E75021" transform="translate(113,408)"/>
<path d="M0 0 C0.70125 0.144375 1.4025 0.28875 2.125 0.4375 C-0.72776137 3.36950474 -3.52579784 6.08065404 -6.875 8.4375 C-7.535 8.1075 -8.195 7.7775 -8.875 7.4375 C-3.7809081 0.57535558 -3.7809081 0.57535558 0 0 Z " fill="#8DC912" transform="translate(428.875,94.5625)"/>
<path d="M0 0 C-1.17255709 3.33727786 -2.18868404 5.77437487 -5 8 C-5.66 8 -6.32 8 -7 8 C-6.44414399 4.1090079 -4.34122117 0 0 0 Z " fill="#1178C4" transform="translate(68,63)"/>
<path d="M0 0 C2.475 0.99 2.475 0.99 5 2 C3.60667426 5.36720387 2.0210714 6.9859524 -1 9 C-0.67 6.03 -0.34 3.06 0 0 Z " fill="#D5EAEE" transform="translate(59,62)"/>
<path d="M0 0 C0.33 0.99 0.66 1.98 1 3 C1.99 3.33 2.98 3.66 4 4 C3.67 5.32 3.34 6.64 3 8 C2.01 8 1.02 8 0 8 C-1.125 5.6875 -1.125 5.6875 -2 3 C-1.34 2.01 -0.68 1.02 0 0 Z " fill="#F44920" transform="translate(86,436)"/>
<path d="M0 0 C0.33 0.66 0.66 1.32 1 2 C-2 5 -5 8 -8 11 C-8.66 10.67 -9.32 10.34 -10 10 C-8.7121669 8.51749445 -7.41960936 7.03909182 -6.125 5.5625 C-5.40570313 4.73878906 -4.68640625 3.91507812 -3.9453125 3.06640625 C-2 1 -2 1 0 0 Z " fill="#976369" transform="translate(198,322)"/>
<path d="M0 0 C0.66 0 1.32 0 2 0 C2.33 2.31 2.66 4.62 3 7 C1.35 7.33 -0.3 7.66 -2 8 C-1.34 5.36 -0.68 2.72 0 0 Z " fill="#037EE2" transform="translate(307,196)"/>
<path d="M0 0 C-0.6875 2.375 -0.6875 2.375 -2 5 C-4.625 6.3125 -4.625 6.3125 -7 7 C-7 4 -7 4 -5.1875 1.8125 C-3 0 -3 0 0 0 Z " fill="#047DE3" transform="translate(405,104)"/>
<path d="M0 0 C2.97 1.98 2.97 1.98 6 4 C4 6 4 6 1.375 6.125 C0.59125 6.08375 -0.1925 6.0425 -1 6 C-0.67 4.02 -0.34 2.04 0 0 Z " fill="#F7EFEC" transform="translate(69,456)"/>
<path d="M0 0 C0 2.62113708 -0.31292445 4.50935112 -1 7 C-3.31 7.66 -5.62 8.32 -8 9 C-7.04270084 7.87411986 -6.08412105 6.7493285 -5.125 5.625 C-4.59132812 4.99851562 -4.05765625 4.37203125 -3.5078125 3.7265625 C-2.38567993 2.44163349 -1.20628025 1.20628025 0 0 Z " fill="#B15E56" transform="translate(214,306)"/>
<path d="M0 0 C0.66 0 1.32 0 2 0 C2 0.99 2 1.98 2 3 C2.99 3.33 3.98 3.66 5 4 C3.68 5.32 2.36 6.64 1 8 C1 6.68 1 5.36 1 4 C0.34 4 -0.32 4 -1 4 C-0.67 2.68 -0.34 1.36 0 0 Z " fill="#1080CB" transform="translate(247,264)"/>
<path d="M0 0 C0.99 0.33 1.98 0.66 3 1 C3 1.99 3 2.98 3 4 C1.68 4 0.36 4 -1 4 C-1 4.66 -1 5.32 -1 6 C-2.65 6.66 -4.3 7.32 -6 8 C-4.02 5.36 -2.04 2.72 0 0 Z " fill="#88C715" transform="translate(451,70)"/>
<path d="M0 0 C0.33 0.66 0.66 1.32 1 2 C-0.125 4.5625 -0.125 4.5625 -2 7 C-4.6875 7.8125 -4.6875 7.8125 -7 8 C-6.02133662 6.85373678 -5.04205413 5.70800212 -4.0625 4.5625 C-3.51722656 3.92441406 -2.97195313 3.28632813 -2.41015625 2.62890625 C-1.63204305 1.73008851 -0.84063472 0.84063472 0 0 Z " fill="#81D053" transform="translate(283,237)"/>
<path d="M0 0 C0.78375 0.04125 1.5675 0.0825 2.375 0.125 C0.725 2.105 -0.925 4.085 -2.625 6.125 C-3.285 4.805 -3.945 3.485 -4.625 2.125 C-2.625 0.125 -2.625 0.125 0 0 Z " fill="#137DC4" transform="translate(279.625,237.875)"/>
<path d="M0 0 C0 2.83967231 -0.40267181 5.23735711 -1 8 C-2.98 8 -4.96 8 -7 8 C-6.02133662 6.85373678 -5.04205413 5.70800212 -4.0625 4.5625 C-3.51722656 3.92441406 -2.97195313 3.28632812 -2.41015625 2.62890625 C-1.63204305 1.73008851 -0.84063472 0.84063472 0 0 Z " fill="#80CF53" transform="translate(433,87)"/>
<path d="M0 0 C3.96 0 7.92 0 12 0 C12 0.66 12 1.32 12 2 C12.66 2.33 13.32 2.66 14 3 C9.30976546 2.43393721 4.65499974 1.81462495 0 1 C0 0.67 0 0.34 0 0 Z " fill="#D6ECEF" transform="translate(402,44)"/>
<path d="M0 0 C0.66 0.33 1.32 0.66 2 1 C1.01 4.3 0.02 7.6 -1 11 C-1.99 9.68 -2.98 8.36 -4 7 C-3.525625 6.5875 -3.05125 6.175 -2.5625 5.75 C-0.83733482 3.817815 -0.43415125 2.51807725 0 0 Z " fill="#E1F4F3" transform="translate(41,96)"/>
<path d="M0 0 C0.99 0.33 1.98 0.66 3 1 C-0.44615385 5.8 -0.44615385 5.8 -3.25 6.8125 C-4.11625 6.9053125 -4.11625 6.9053125 -5 7 C-5 6.01 -5 5.02 -5 4 C-4.01 3.67 -3.02 3.34 -2 3 C-1.34 2.01 -0.68 1.02 0 0 Z " fill="#F94A10" transform="translate(159,366)"/>
<path d="M0 0 C0 0.99 0 1.98 0 3 C-0.99 3.495 -0.99 3.495 -2 4 C-2 4.99 -2 5.98 -2 7 C-3.98 7.33 -5.96 7.66 -8 8 C-3.375 2.25 -3.375 2.25 0 0 Z " fill="#C05B48" transform="translate(242,279)"/>
<path d="M0 0 C0.99 0.33 1.98 0.66 3 1 C-0.465 3.97 -0.465 3.97 -4 7 C-4 6.34 -4 5.68 -4 5 C-4.66 4.67 -5.32 4.34 -6 4 C-4.68 4 -3.36 4 -2 4 C-2 3.01 -2 2.02 -2 1 C-1.34 0.67 -0.68 0.34 0 0 Z " fill="#1C7CC8" transform="translate(265,252)"/>
<path d="M0 0 C-0.1875 1.875 -0.1875 1.875 -1 4 C-3.5625 5.25 -3.5625 5.25 -6 6 C-3.84615385 0 -3.84615385 0 0 0 Z " fill="#0286C7" transform="translate(372,142)"/>
<path d="M0 0 C1.98 1.65 3.96 3.3 6 5 C4.68 5.33 3.36 5.66 2 6 C1.01 4.68 0.02 3.36 -1 2 C-0.67 1.34 -0.34 0.68 0 0 Z " fill="#E9F3F1" transform="translate(61,449)"/>
<path d="M0 0 C0.33 0.66 0.66 1.32 1 2 C2.65 1.67 4.3 1.34 6 1 C4.68 2.32 3.36 3.64 2 5 C1.01 4.67 0.02 4.34 -1 4 C-0.67 2.68 -0.34 1.36 0 0 Z " fill="#157FCC" transform="translate(227,286)"/>
<path d="M0 0 C0.66 0.99 1.32 1.98 2 3 C0.03533587 4.06775224 -1.96855359 5.06553465 -4 6 C-4.66 5.67 -5.32 5.34 -6 5 C-4.02 3.35 -2.04 1.7 0 0 Z " fill="#CB553F" transform="translate(255,266)"/>
<path d="M0 0 C2.45484649 2.13464912 3.68134222 3.70720291 4 7 C3.34 7.66 2.68 8.32 2 9 C0.50178941 5.62902617 0 3.79557881 0 0 Z " fill="#97C431" transform="translate(462,83)"/>
<path d="M0 0 C0.33 0.99 0.66 1.98 1 3 C-1.97 2.67 -4.94 2.34 -8 2 C-4.77208445 -0.1519437 -3.71599191 -0.20086443 0 0 Z " fill="#F9F7DE" transform="translate(420,470)"/>
<path d="M0 0 C1.99097846 2.98646769 2.94124926 5.59687262 4 9 C3.01 9 2.02 9 1 9 C0.67 6.03 0.34 3.06 0 0 Z " fill="#D6EDEF" transform="translate(44,423)"/>
<path d="M0 0 C0.99 0 1.98 0 3 0 C2.60196439 2.88575819 2.20990931 3.82189513 -0.0625 5.75 C-0.701875 6.1625 -1.34125 6.575 -2 7 C-1.42415568 4.61435923 -0.77772405 2.33317216 0 0 Z " fill="#137FCB" transform="translate(417,98)"/>
<path d="M0 0 C1.27875 -0.061875 2.5575 -0.12375 3.875 -0.1875 C4.95394531 -0.23970703 4.95394531 -0.23970703 6.0546875 -0.29296875 C6.69664062 -0.19628906 7.33859375 -0.09960938 8 0 C8.66 0.99 9.32 1.98 10 3 C7.36 3 4.72 3 2 3 C2 2.34 2 1.68 2 1 C1.34 0.67 0.68 0.34 0 0 Z " fill="#1C84CF" transform="translate(418,50)"/>
<path d="M0 0 C2.64 0.66 5.28 1.32 8 2 C7.01 3.32 6.02 4.64 5 6 C3.35 4.02 1.7 2.04 0 0 Z " fill="#3577B2" transform="translate(62,449)"/>
<path d="M0 0 C0.33 0.66 0.66 1.32 1 2 C1.66 2 2.32 2 3 2 C2.67 2.66 2.34 3.32 2 4 C-0.0625 4.625 -0.0625 4.625 -2 5 C-2 5.66 -2 6.32 -2 7 C-2.66 6.67 -3.32 6.34 -4 6 C-2.68 4.02 -1.36 2.04 0 0 Z " fill="#F7F2C5" transform="translate(460,437)"/>
<path d="M0 0 C0.33 0.66 0.66 1.32 1 2 C1.99 2 2.98 2 4 2 C4 2.66 4 3.32 4 4 C3.34 4 2.68 4 2 4 C2 4.66 2 5.32 2 6 C1.34 6 0.68 6 0 6 C-0.38218767 4.34385343 -0.71395102 2.67542976 -1 1 C-0.67 0.67 -0.34 0.34 0 0 Z " fill="#2478C6" transform="translate(181,333)"/>
<path d="M0 0 C0.66 0.33 1.32 0.66 2 1 C2 2.32 2 3.64 2 5 C0.35 4.67 -1.3 4.34 -3 4 C-2.01 2.68 -1.02 1.36 0 0 Z " fill="#8FCB0F" transform="translate(301,221)"/>
<path d="M0 0 C0.66 0.33 1.32 0.66 2 1 C1.49396008 3.16874252 1.00016187 4.99967627 0 7 C-0.99 7 -1.98 7 -3 7 C-3 6.01 -3 5.02 -3 4 C-2.01 4 -1.02 4 0 4 C0 2.68 0 1.36 0 0 Z " fill="#037DE4" transform="translate(355,151)"/>
</svg>
