<?xml version="1.0" encoding="UTF-8"?>
<svg version="1.1" xmlns="http://www.w3.org/2000/svg" width="500" height="500">
<path d="M0 0 C165 0 330 0 500 0 C500 165 500 330 500 500 C335 500 170 500 0 500 C0 335 0 170 0 0 Z " fill="#1BD30A" transform="translate(0,0)"/>
<path d="M0 0 C165 0 330 0 500 0 C500 1.98 500 3.96 500 6 C497.54418945 8.11474609 497.54418945 8.11474609 494.11328125 10.0234375 C493.5004277 10.37330719 492.88757416 10.72317688 492.25614929 11.08364868 C490.28622362 12.20237421 488.30067233 13.28909449 486.3125 14.375 C485.02419418 15.09682708 483.7370698 15.82076706 482.45117188 16.546875 C480.52488091 17.6340548 478.59784262 18.71954913 476.66612244 19.79705811 C471.45299901 22.71064553 466.36990092 25.80821386 461.29907227 28.96337891 C457.77073012 31.14153551 454.21461904 33.26628933 450.64453125 35.375 C450.01535294 35.74678375 449.38617462 36.1185675 448.7379303 36.50161743 C447.43633271 37.2703323 446.13460829 38.03883246 444.83276367 38.80712891 C435.20971785 44.48908684 425.60629979 50.19637419 416.10473633 56.07983398 C414.02987291 57.36306122 411.95023192 58.6385946 409.8659668 59.90649414 C404.587969 63.12198418 399.38182805 66.39065863 394.25836182 69.84555054 C391.5661927 71.64617529 388.84282363 73.39602995 386.11425781 75.14086914 C384.82806414 75.97923126 383.55493568 76.83814547 382.29882812 77.72094727 C373.68338301 83.75907207 366.24957571 85.56088207 355.75610352 85.69946289 C354.54453677 85.72885201 353.33297003 85.75824112 352.08468914 85.78852081 C348.75400614 85.86354494 345.42398039 85.92187461 342.09285069 85.96941495 C339.99066245 86.00013646 337.88859886 86.03547932 335.78650665 86.07215691 C325.72943158 86.24559065 315.67204394 86.36459849 305.61408067 86.47232056 C301.28595483 86.51963405 296.95788382 86.57151429 292.62980652 86.62304688 C279.83378729 86.77459189 267.03768871 86.91899116 254.24157715 87.0625 C244.24000537 87.1747697 234.23846255 87.28895974 224.2369749 87.40851593 C219.12530255 87.46941174 214.01360753 87.52660737 208.90185988 87.58079529 C205.71068988 87.61544926 202.51956629 87.65348792 199.32844543 87.69238281 C197.86976365 87.70949845 196.41106542 87.72528312 194.95235252 87.73950195 C187.22012429 87.81563953 179.50171831 88.01332467 171.77929688 88.41337585 C171.06859899 88.44595096 170.3579011 88.47852607 169.62566692 88.5120883 C164.29253156 88.81776297 160.43398306 89.85250217 156.04296875 92.83203125 C155.41016495 93.2203009 154.77736115 93.60857056 154.12538147 94.00860596 C152.12471057 95.24580976 150.15755221 96.52723611 148.1875 97.8125 C146.79800109 98.68297154 145.40637013 99.55004846 144.01269531 100.41381836 C141.26320784 102.12349027 138.52517271 103.84928217 135.79638672 105.59179688 C130.67709559 108.85375429 125.46650459 111.95925993 120.25 115.0625 C119.45360107 115.54372314 118.65720215 116.02494629 117.83666992 116.52075195 C117.1119751 116.95863037 116.38728027 117.39650879 115.640625 117.84765625 C115.02735352 118.21898682 114.41408203 118.59031738 113.78222656 118.97290039 C107.52339169 122.5798755 102.19092144 122.68568689 95 122 C88.88769104 120.28159285 85.18922232 115.21191701 82 110 C80.96547066 106.89641197 80.89821065 104.74791979 80.9375 101.5 C80.94652344 100.5409375 80.95554687 99.581875 80.96484375 98.59375 C80.97644531 97.7378125 80.98804687 96.881875 81 96 C81 95.01 81 94.02 81 93 C80.071875 93.680625 79.14375 94.36125 78.1875 95.0625 C77.66542969 95.44535156 77.14335938 95.82820313 76.60546875 96.22265625 C70.82704262 102.61969735 71.59431444 110.38447233 71.67407227 118.49462891 C71.6769485 119.86250484 71.67856352 121.23038391 71.67902184 122.59826279 C71.68436432 126.31806141 71.70905093 130.0375067 71.73762965 133.75719023 C71.75959252 136.92057466 71.77048334 140.08395968 71.7814191 143.2473985 C71.81969891 154.16523338 71.90260018 165.0825496 72 176 C72.00720157 176.8115045 72.01440313 177.623009 72.02182293 178.45910454 C72.22391349 200.98282579 72.51508314 223.50519585 72.83421957 246.02752519 C72.91518284 251.75188075 72.99349662 257.47626766 73.07006836 263.20068359 C73.08091158 264.01092413 73.09175481 264.82116466 73.10292661 265.65595794 C73.14661723 268.92386668 73.19024181 272.1917763 73.23380399 275.45968676 C73.35180663 284.29839397 73.47334801 293.13702146 73.60580444 301.9755249 C73.65256139 305.11226169 73.69914215 308.24900104 73.74560547 311.38574219 C73.75705872 312.15585239 73.76851198 312.92596259 73.7803123 313.71940947 C73.93010116 323.88242016 74.04084274 334.04501303 74.11402416 344.2088604 C74.15245251 349.51789475 74.20337374 354.82678773 74.25749999 360.13568318 C74.29950412 364.36349206 74.32514511 368.59095865 74.33776331 372.81895161 C74.35234762 376.01308399 74.39220001 379.20692438 74.42797852 382.40087891 C74.42583155 383.52237461 74.42368458 384.64387032 74.42147255 385.79935074 C74.53866461 393.37941469 75.44342052 401.54028435 80.34078312 407.68125343 C87.5798687 414.16790816 94.95259611 414.42807971 104.1730957 414.328125 C105.38308668 414.3266597 106.59307766 414.3251944 107.83973503 414.32368469 C111.15308025 414.31596718 114.4657673 414.29444388 117.77896285 414.26610184 C120.59208047 414.24436986 123.40519853 414.23374942 126.21837622 414.22300434 C154.06335257 414.11445468 181.90535302 413.66711492 209.74585849 413.18078953 C224.84067657 412.91720858 239.93585525 412.67726561 255.03125 412.44921875 C255.74257198 412.43845236 256.45389396 412.42768596 257.18677115 412.41659331 C283.28726727 412.02312971 309.38579669 411.7998412 335.48950577 411.81152344 C338.17728115 411.8124963 340.86505074 411.81153336 343.55282593 411.81030273 C347.6590532 411.80937493 351.76521849 411.81469186 355.87142944 411.82623863 C357.34073594 411.83004838 358.81004677 411.83247944 360.27935791 411.83341408 C362.24378614 411.83552099 364.20820271 411.84489637 366.17260742 411.85473633 C367.25926193 411.85854813 368.34591644 411.86235992 369.46549988 411.86628723 C372 412 372 412 374 413 C381.41635922 413.69599679 387.89536657 413.5997703 394 409 C396.8239407 406.36826469 398.73647347 403.61135932 400.27368164 400.04516602 C402.34362583 396.39385589 404.18587444 395.22139163 407.80859375 393.15234375 C408.38097275 392.81847153 408.95335175 392.4845993 409.54307556 392.14060974 C410.75073969 391.43646301 411.96195191 390.73836996 413.17645264 390.04608154 C415.51445913 388.70487951 417.82131095 387.3131349 420.12776184 385.91853333 C421.87747343 384.86088262 423.63109095 383.81001088 425.38598633 382.76098633 C436.13841744 376.33181512 446.87491114 369.87747841 457.57839966 363.36712646 C462.1394147 360.59325747 466.70294141 357.82351992 471.26605225 355.05310059 C473.04961038 353.96986949 474.83266728 352.88581624 476.61572266 351.80175781 C480.1154991 349.67483208 483.62004185 347.55587573 487.125 345.4375 C488.19274658 344.7875708 489.26049316 344.1376416 490.3605957 343.46801758 C491.33730225 342.87915771 492.31400879 342.29029785 493.3203125 341.68359375 C494.17898926 341.16337646 495.03766602 340.64315918 495.92236328 340.10717773 C498 339 498 339 500 339 C500 392.13 500 445.26 500 500 C335 500 170 500 0 500 C0 335 0 170 0 0 Z " fill="#FEFEFE" transform="translate(0,0)"/>
<path d="M0 0 C0.32002113 19.49988103 0.63179852 38.99988975 0.9375 58.5 C0.94896277 59.23061661 0.96042555 59.96123322 0.97223568 60.71398973 C1.67496164 105.53751908 2.25091191 150.35993306 2.625 195.1875 C2.63524578 196.41463715 2.64549156 197.64177429 2.65604782 198.90609741 C2.77810763 213.60400998 2.89313427 228.30196924 3 243 C-171.82889409 246.29739624 -171.82889409 246.29739624 -240 246 C-240.81504975 218.25321823 -241.31736018 190.50728206 -241.70718122 162.75156641 C-241.78694329 157.10761837 -241.86932924 151.46370855 -241.95140076 145.8197937 C-242.10545153 135.19983589 -242.2572462 124.57984717 -242.40816683 113.95984447 C-242.58050683 101.84066707 -242.7554586 89.72152777 -242.93059647 77.60239053 C-243.28990745 52.73496747 -243.64604676 27.86749985 -244 3 C-220.45509748 2.60313986 -196.91010844 2.21180377 -173.36501312 1.82654572 C-162.4255908 1.64742827 -151.48620074 1.46666799 -140.546875 1.28173828 C-46.43165362 -0.30757796 -46.43165362 -0.30757796 0 0 Z " fill="#FEFEFE" transform="translate(356,127)"/>
<path d="M0 0 C0.33 0.66 0.66 1.32 1 2 C0.67 2.66 0.34 3.32 0 4 C-1.0680141 11.0299662 0.2723697 16.00341928 4.25 21.859375 C7.75407204 26.14560598 10.48031817 27.66030467 15.984375 28.40234375 C23.90070168 28.78329374 29.31611691 27.13505952 36 23 C36.66 22.67 37.32 22.34 38 22 C38.01030746 22.75277725 38.02061493 23.5055545 38.03123474 24.28114319 C38.16315196 33.87497955 38.29881392 43.46875919 38.4375 53.0625 C38.44866852 53.83549564 38.45983704 54.60849129 38.47134399 55.40491104 C38.72649523 73.00162196 38.98446589 90.59611939 39.5 108.1875 C40.91396035 157.4392773 41.19555901 206.73116292 41 256 C42.0209375 255.37677856 42.0209375 255.37677856 43.0625 254.7409668 C57.09663755 246.18074942 71.16630282 237.68637023 85.3125 229.3125 C97.44764041 222.12866974 109.519444 214.84841905 121.55224609 207.49414062 C125.32028287 205.19408227 129.0946962 202.90483375 132.875 200.625 C133.4944751 200.24907715 134.1139502 199.8731543 134.75219727 199.48583984 C138.88383867 197 138.88383867 197 140 197 C144.86435181 240.51824322 144.86435181 240.51824322 137.52441406 249.76367188 C131.35989135 255.79102216 122.78338737 258.68619346 114.8125 261.53271484 C109.22668199 263.58081335 104.40416539 266.76994962 99.4375 270 C97.59311926 271.13554576 95.74540144 272.26568766 93.89453125 273.390625 C92.95303223 273.96748047 92.0115332 274.54433594 91.04150391 275.13867188 C85.85143713 278.31486943 80.65311444 281.47743219 75.45318604 284.63745117 C73.64422216 285.73830229 71.83733542 286.84249745 70.03076172 287.94726562 C64.94312249 291.0519225 59.85039061 294.12244203 54.62109375 296.984375 C44.9547562 302.08440221 44.9547562 302.08440221 38.9609375 310.95703125 C36.91361444 315.30967336 32.88951953 318.06948284 28.66796875 320.1484375 C25.58600382 321.13213934 23.04209315 321.23163109 19.8125 321.1875 C18.76707031 321.18105469 17.72164063 321.17460937 16.64453125 321.16796875 C14 321 14 321 12 320 C10.05963083 319.89763183 8.11566308 319.86155223 6.17260742 319.85473633 C4.91504639 319.84843704 3.65748535 319.84213776 2.36181641 319.83564758 C0.94303416 319.83412589 -0.47574847 319.83293375 -1.89453125 319.83203125 C-3.40861047 319.82810541 -4.92268925 319.82400555 -6.43676758 319.81974792 C-10.66228317 319.81026859 -14.88776067 319.80958874 -19.11328506 319.81152344 C-21.82156824 319.81250328 -24.52984566 319.81151478 -27.23812866 319.81030273 C-53.1512215 319.80604565 -79.05899385 320.05705507 -104.96875 320.44921875 C-105.68242351 320.46000025 -106.39609703 320.47078175 -107.13139701 320.48188996 C-122.1927964 320.71007184 -137.25390737 320.95359327 -152.31473446 321.21683216 C-159.11210905 321.33551841 -165.90954672 321.4502959 -172.70703125 321.5625 C-173.36830088 321.57346702 -174.02957051 321.58443405 -174.71087861 321.5957334 C-205.80749199 322.10829228 -236.90007742 322.10715204 -268 322 C-268 321.67 -268 321.34 -268 321 C-267.20335937 320.90203125 -266.40671875 320.8040625 -265.5859375 320.703125 C-257.79499508 319.60367327 -252.67929115 318.47583717 -247.6875 312 C-245.2309853 307.63286275 -244.86147891 304.12140941 -244.68359375 299.140625 C-244.64169922 298.02558594 -244.59980469 296.91054688 -244.55664062 295.76171875 C-244.51732422 294.60285156 -244.47800781 293.44398438 -244.4375 292.25 C-244.39431641 291.07566406 -244.35113281 289.90132813 -244.30664062 288.69140625 C-244.20065206 285.79438549 -244.09858362 282.89728065 -244 280 C-211.65759819 279.27694005 -179.31611095 278.8091419 -146.96810913 278.43878174 C-126.93367483 278.20887024 -106.90502245 277.93018192 -86.875 277.4375 C-58.25600518 276.73446164 -29.62540933 276.90688761 -1 277 C-1.06933243 275.97973724 -1.13866486 274.95947449 -1.21009827 273.90829468 C-1.84649014 264.13231024 -2.16571135 254.39168159 -2.23005295 244.59622002 C-2.24692207 242.03847006 -2.26925759 239.48080941 -2.29263306 236.92311096 C-2.32664413 233.14678305 -2.3585269 229.37044619 -2.38870239 225.59408569 C-2.47320534 215.11338846 -2.57499183 204.63285629 -2.6796875 194.15234375 C-2.69086924 193.02614687 -2.70205097 191.89994999 -2.71357155 190.73962593 C-2.91568746 170.66002206 -3.19751665 150.58206646 -3.5078125 130.50390625 C-3.51910635 129.7719979 -3.5304002 129.04008955 -3.54203629 128.28600216 C-3.76797467 113.65627689 -3.99975889 99.02664648 -4.2370317 84.39710075 C-4.32691641 78.85179588 -4.41550526 73.30647113 -4.50330663 67.7611329 C-4.5734917 63.33799497 -4.64672486 58.91491394 -4.72061157 54.49183655 C-4.79645884 49.90318401 -4.8585498 45.314668 -4.90969849 40.72567749 C-4.96200653 36.07262642 -5.06831066 31.42404902 -5.20040894 26.77261353 C-5.24684635 24.43476705 -5.29261623 22.0969072 -5.33764648 19.7590332 C-5.37802819 18.69311793 -5.4184099 17.62720266 -5.4600153 16.52898693 C-5.55615346 9.63888889 -4.3626968 5.38984666 0 0 Z " fill="#FE8211" transform="translate(360,93)"/>
<path d="M0 0 C0.59423596 29.79117112 1.0538083 59.58214222 1.32769857 89.37797052 C1.36021357 92.90238071 1.39386627 96.42677918 1.42822266 99.95117188 C1.43504273 100.65275999 1.4418628 101.35434811 1.44888954 102.07719648 C1.56176774 113.41050998 1.76660094 124.74036449 2.0059727 136.07163155 C2.24987437 147.71521369 2.39173524 159.35679042 2.44630086 171.00280666 C2.4801154 177.53934267 2.55910883 184.06806137 2.74898148 190.6020813 C3.89476976 231.58167602 3.89476976 231.58167602 -2.53818893 239.71771431 C-8.18689477 245.53263076 -15.28003089 248.49480942 -22.91189289 250.94294548 C-27.20775711 252.41341348 -30.78223825 254.64219947 -34.5546875 257.12109375 C-35.78049039 257.85367726 -37.00956419 258.58084692 -38.2434082 259.29980469 C-42.15723555 261.60315922 -46.06584791 263.91523035 -49.97265625 266.23046875 C-50.63917709 266.62541534 -51.30569794 267.02036194 -51.99241638 267.42727661 C-59.12491707 271.65894194 -66.2232786 275.94632042 -73.3125 280.25 C-74.43188965 280.92861084 -75.5512793 281.60722168 -76.70458984 282.30639648 C-82.81615275 286.02363859 -88.8641225 289.81576444 -94.84448242 293.74121094 C-97 295 -97 295 -99 295 C-99.01407851 294.06440829 -99.01407851 294.06440829 -99.02844143 293.10991573 C-99.26010245 277.72433801 -99.49409619 262.33879752 -99.73049068 246.95329189 C-99.84477023 239.51209021 -99.95833054 232.07087899 -100.07006836 224.62963867 C-100.63892133 185.08932138 -100.63892133 185.08932138 -101.5 145.5546875 C-101.5197224 144.79338783 -101.53944481 144.03208817 -101.55976486 143.24771881 C-101.79267847 134.37745906 -102.08702819 125.5109353 -102.4222784 116.64399242 C-102.63832811 110.80127229 -102.79617079 104.95866024 -102.91100407 99.11308765 C-102.9847844 95.48481535 -103.0915495 91.86267036 -103.26196289 88.23754883 C-104.33625295 64.69352879 -104.33625295 64.69352879 -100.62042236 58.81893921 C-97.04623114 55.30348358 -92.86328318 53.53807082 -88.20187378 51.85641479 C-84.67965275 50.48645334 -81.61009277 48.47077165 -78.421875 46.46484375 C-77.16302251 45.71519931 -75.90159581 44.9698616 -74.63769531 44.22875977 C-62.79482564 37.25015439 -50.99066782 30.21175396 -39.25 23.0625 C-38.6754306 22.71265045 -38.10086121 22.3628009 -37.50888062 22.00234985 C-36.6569664 21.4835878 -36.6569664 21.4835878 -35.7878418 20.9543457 C-26.49375614 15.29493906 -17.17577693 9.67649729 -7.83251953 4.09863281 C-6.22515969 3.13498782 -4.62558841 2.15837608 -3.02734375 1.1796875 C-1 0 -1 0 0 0 Z " fill="#FEFEFE" transform="translate(500,54)"/>
<path d="M0 0 C5.25526906 0.10142044 10.51075611 0.10952716 15.76685286 0.12840652 C25.67675988 0.17773589 35.58377372 0.30846553 45.49241817 0.46999836 C56.79106403 0.65011183 68.08986319 0.73712383 79.38959193 0.81712532 C102.59372942 0.98345354 125.79531622 1.2640717 148.99723005 1.62230301 C149.15071821 4.49013138 149.15071821 4.49013138 148.99723005 7.62230301 C146.54141951 9.7370491 146.54141951 9.7370491 143.1105113 11.64574051 C142.49765776 11.9956102 141.88480421 12.34547989 141.25337934 12.70595169 C139.28345368 13.82467722 137.29790238 14.9113975 135.30973005 15.99730301 C134.02142423 16.71913008 132.73429985 17.44307006 131.44840193 18.16917801 C129.52211096 19.25635781 127.59507267 20.34185214 125.66335249 21.41936111 C120.45022907 24.33294854 115.36713097 27.43051687 110.29630232 30.58568192 C106.76796018 32.76383852 103.21184909 34.88859234 99.6417613 36.99730301 C99.01258299 37.36908676 98.38340467 37.74087051 97.73516035 38.12392044 C96.43356276 38.89263531 95.13183834 39.66113547 93.82999372 40.42943192 C84.2069479 46.11138985 74.60352984 51.8186772 65.10196638 57.70213699 C63.02710296 58.98536423 60.94746198 60.26089761 58.86319685 61.52879715 C53.58519905 64.74428719 48.3790581 68.01296164 43.25559187 71.46785355 C40.56342275 73.2684783 37.84005368 75.01833296 35.11148787 76.76317215 C33.8252942 77.60153427 32.55216573 78.46044848 31.29605818 79.34325027 C22.68136215 85.38085008 15.25021696 87.18222101 4.7577281 87.31956863 C3.54630298 87.34888694 2.33487785 87.37820524 1.08674288 87.40841198 C-2.24492385 87.48360926 -5.57597835 87.54226653 -8.90808344 87.59080005 C-11.01290247 87.6224554 -13.11757499 87.65916552 -15.22228289 87.69746971 C-25.29928548 87.87962171 -35.37661125 88.01029812 -45.45455241 88.12755513 C-49.78894643 88.1786556 -54.12329448 88.23341904 -58.45764971 88.28769302 C-65.71281761 88.37804005 -72.96801102 88.46600091 -80.22322893 88.55223465 C-89.49167866 88.6624072 -98.76007601 88.77648635 -108.02846289 88.89181232 C-116.07494769 88.99191682 -124.12145235 89.09038978 -132.16796136 89.18852687 C-134.72080743 89.21971196 -137.27365113 89.2510866 -139.82649469 89.28247643 C-143.8511656 89.3318461 -147.87584766 89.38019341 -151.90053988 89.4277935 C-153.36330643 89.44522249 -154.82606952 89.46294588 -156.28882837 89.48101044 C-165.86094445 89.59892306 -175.43010566 89.64302565 -185.00276995 89.62230301 C-182.22683742 86.7127561 -179.1505026 84.77951013 -175.6941762 82.77074051 C-175.06470583 82.39974228 -174.43523546 82.02874405 -173.78669024 81.64650345 C-172.42698306 80.84558502 -171.0661036 80.04665413 -169.70418596 79.24950027 C-166.04939983 77.1098589 -162.4034769 74.95520442 -158.7566762 72.80199051 C-158.01470995 72.36437393 -157.2727437 71.92675735 -156.50829363 71.47587967 C-149.63617688 67.41777503 -142.81481394 63.28038731 -136.00276995 59.12230301 C-125.9408039 52.98743299 -115.83098678 46.93856389 -105.69026995 40.93480301 C-96.47631842 35.47800604 -87.27082976 30.0099959 -78.12776995 24.43480301 C-77.35064118 23.97808716 -76.57351242 23.52137131 -75.7728343 23.05081558 C-70.85807698 20.12122367 -66.2425599 17.09665864 -61.77928972 13.51195145 C-42.42996132 -1.26553633 -23.49476886 -0.53154546 0 0 Z " fill="#FEFEFE" transform="translate(351.002769947052,-1.6223030090332031)"/>
<path d="M0 0 C2 3 2 3 3.125 5.8125 C5.69860734 10.18763247 8.413861 12.76545333 13 15 C17.81835559 15.82770405 22.55733971 15.83987469 27.4375 15.8125 C29.97789745 15.83659763 32.51826833 15.86376375 35.05859375 15.89453125 C36.17548584 15.89300049 37.29237793 15.89146973 38.44311523 15.88989258 C41 16 41 16 42 17 C42.13493596 19.48826513 42.20497591 21.95060225 42.23414612 24.44094849 C42.2472512 25.23039695 42.26035628 26.01984541 42.27385849 26.83321655 C42.31692611 29.5022039 42.35288833 32.17124101 42.38891602 34.84033203 C42.41820963 36.74809391 42.44792344 38.65584937 42.47802734 40.56359863 C42.55904228 45.78241744 42.63376202 51.00130959 42.70718122 56.22024012 C42.78559623 61.73751854 42.8688841 67.25472383 42.95140076 72.77194214 C43.09018941 82.10556225 43.2248427 91.43923552 43.35717773 100.77294922 C43.49131166 110.23005183 43.62985097 119.68707544 43.77319336 129.14404297 C45.12623622 218.51208655 45.12623622 218.51208655 45.26008415 254.63076401 C45.27006343 257.29184616 45.28754445 259.95253663 45.30887032 262.61359024 C45.33545102 266.16165235 45.34271826 269.70917598 45.34350586 273.25732422 C45.35441442 274.26266582 45.36532299 275.26800743 45.37656212 276.30381393 C45.3360576 284.90783644 43.25827177 290.74172823 37 297 C31.24509601 300.45294239 25.62276928 300.84809563 19 300 C13.14950402 298.247821 9.37847528 295.11597685 6 290 C2.90774726 283.18088683 2.53575106 276.63717098 2.49169922 269.24169922 C2.46416533 267.51548245 2.46416533 267.51548245 2.43607521 265.75439262 C2.37864623 261.93787813 2.34162647 258.12145092 2.3046875 254.3046875 C2.26963826 251.59511225 2.23025654 248.88560414 2.19104004 246.17608643 C2.0993357 239.66326876 2.02264979 233.15036057 1.95122266 226.63729239 C1.86793185 219.09985078 1.76899662 211.56263876 1.66917729 204.02540088 C1.49059422 190.50853288 1.32630381 176.99153188 1.17007184 163.47438884 C1.02559056 150.98780404 0.86466908 138.50148567 0.69578362 126.01520729 C0.13036869 84.00867254 -0.15986488 42.01038855 0 0 Z " fill="#027CFE" transform="translate(71,114)"/>
<path d="M0 0 C0.0093457 0.59425781 0.01869141 1.18851562 0.02832031 1.80078125 C0.08252993 4.53464645 0.16607278 7.26689199 0.25 10 C0.26417969 10.93457031 0.27835937 11.86914062 0.29296875 12.83203125 C0.53132533 19.64902945 1.69200346 25.33736556 6.37548828 30.52294922 C11.44932772 35.09783083 16.89294584 36.52566973 23.56640625 36.390625 C28.17028605 35.65163948 31.99212827 33.27858697 36 31 C37.20399408 30.38723164 38.41157116 29.78136635 39.625 29.1875 C40.800625 28.5996875 40.800625 28.5996875 42 28 C41.20083166 33.88105936 38.25050586 37.04882554 34 41 C28.06487759 44.72399837 21.81031719 44.53738466 15 44 C14.34 43.67 13.68 43.34 13 43 C11.05963083 42.89763183 9.11566308 42.86155223 7.17260742 42.85473633 C5.28626587 42.8452874 5.28626587 42.8452874 3.36181641 42.83564758 C1.94303416 42.83412589 0.52425153 42.83293375 -0.89453125 42.83203125 C-2.40861047 42.82810541 -3.92268925 42.82400555 -5.43676758 42.81974792 C-9.66228317 42.81026859 -13.88776067 42.80958874 -18.11328506 42.81152344 C-20.82156824 42.81250328 -23.52984566 42.81151478 -26.23812866 42.81030273 C-52.1512215 42.80604565 -78.05899385 43.05705507 -103.96875 43.44921875 C-104.68242351 43.46000025 -105.39609703 43.47078175 -106.13139701 43.48188996 C-121.1927964 43.71007184 -136.25390737 43.95359327 -151.31473446 44.21683216 C-158.11210905 44.33551841 -164.90954672 44.4502959 -171.70703125 44.5625 C-172.36830088 44.57346702 -173.02957051 44.58443405 -173.71087861 44.5957334 C-204.80749199 45.10829228 -235.90007742 45.10715204 -267 45 C-267 44.67 -267 44.34 -267 44 C-266.20335937 43.90203125 -265.40671875 43.8040625 -264.5859375 43.703125 C-256.79499508 42.60367327 -251.67929115 41.47583717 -246.6875 35 C-244.2309853 30.63286275 -243.86147891 27.12140941 -243.68359375 22.140625 C-243.64169922 21.02558594 -243.59980469 19.91054688 -243.55664062 18.76171875 C-243.51732422 17.60285156 -243.47800781 16.44398438 -243.4375 15.25 C-243.39431641 14.07566406 -243.35113281 12.90132813 -243.30664062 11.69140625 C-243.20065206 8.79438549 -243.09858362 5.89728065 -243 3 C-210.65759819 2.27694005 -178.31611095 1.8091419 -145.96810913 1.43878174 C-125.93367483 1.20887024 -105.90502245 0.93018192 -85.875 0.4375 C-57.25600518 -0.26553836 -28.62540933 -0.09311239 0 0 Z " fill="#FE0202" transform="translate(359,370)"/>
<path d="M0 0 C1.7764489 0.0130839 3.55292336 0.02303485 5.32940674 0.03001404 C9.96602249 0.05652073 14.60106072 0.1250874 19.23706055 0.20294189 C23.98334421 0.27503141 28.72988714 0.30662236 33.4765625 0.34179687 C42.76110322 0.41647991 52.04448206 0.53567684 61.328125 0.68359375 C58.91405835 3.17994983 56.54957037 4.88743677 53.55078125 6.66015625 C52.5774585 7.23926758 51.60413574 7.81837891 50.60131836 8.41503906 C49.54178955 9.03991211 48.48226074 9.66478516 47.390625 10.30859375 C45.10109754 11.66979987 42.81204642 13.03178369 40.5234375 14.39453125 C39.93060471 14.74692871 39.33777191 15.09932617 38.72697449 15.46240234 C32.95459343 18.89666971 27.21802526 22.38892211 21.48361206 25.88616943 C10.13481919 32.80531445 -1.2727406 39.62038428 -12.71096802 46.39050293 C-22.06743743 51.92990731 -31.38814413 57.52317041 -40.671875 63.18359375 C-51.30181771 69.66482168 -61.98865216 76.04463936 -72.70281982 82.38555908 C-82.27123595 88.0500176 -91.80153087 93.7725128 -101.296875 99.55859375 C-109.89293198 104.79554868 -118.50808984 109.9967906 -127.171875 115.12109375 C-128.08018066 115.65911621 -128.98848633 116.19713867 -129.92431641 116.75146484 C-130.75882324 117.24340332 -131.59333008 117.7353418 -132.453125 118.2421875 C-133.17564453 118.66814209 -133.89816406 119.09409668 -134.64257812 119.53295898 C-141.05102905 123.16662467 -146.30687036 123.38588026 -153.671875 122.68359375 C-159.78418396 120.9651866 -163.48265268 115.89551076 -166.671875 110.68359375 C-168.55229993 105.04231895 -168.45234 98.90175744 -166.484375 93.30859375 C-162.84946546 88.04424201 -158.34206729 84.58067531 -152.921875 81.30859375 C-152.23706055 80.88779541 -151.55224609 80.46699707 -150.84667969 80.03344727 C-148.46110994 78.57331406 -146.06768644 77.12685918 -143.671875 75.68359375 C-142.76824219 75.13912598 -141.86460937 74.5946582 -140.93359375 74.03369141 C-136.86023736 71.58292539 -132.78414942 69.13679653 -128.7043457 66.69677734 C-121.39652517 62.32605833 -114.11233271 57.91829559 -106.8404541 53.48806763 C-95.49139215 46.57487149 -84.08912533 39.7567634 -72.65292358 32.98876953 C-61.73937372 26.52853819 -50.87778882 19.98758288 -40.0546875 13.37695312 C-38.99507812 12.73048828 -37.93546875 12.08402344 -36.84375 11.41796875 C-35.9372168 10.86334961 -35.03068359 10.30873047 -34.09667969 9.73730469 C-32.96649414 9.05958008 -31.83630859 8.38185547 -30.671875 7.68359375 C-29.88000793 7.10052963 -29.08814087 6.51746552 -28.27227783 5.91673279 C-18.96554301 -0.43425889 -10.83386682 -0.23664074 0 0 Z " fill="#FE0101" transform="translate(248.671875,-0.68359375)"/>
<path d="M0 0 C4.86435181 43.51824322 4.86435181 43.51824322 -2.47558594 52.76367188 C-8.64010865 58.79102216 -17.21661263 61.68619346 -25.1875 64.53271484 C-30.77331801 66.58081335 -35.59583461 69.76994962 -40.5625 73 C-42.40688074 74.13554576 -44.25459856 75.26568766 -46.10546875 76.390625 C-47.51771729 77.2559082 -47.51771729 77.2559082 -48.95849609 78.13867188 C-54.75702424 81.68723333 -60.56528911 85.21978432 -66.375 88.75 C-67.27478577 89.29684448 -67.27478577 89.29684448 -68.19274902 89.85473633 C-76.49391116 94.8975247 -84.82588462 99.88200633 -93.21484375 104.77734375 C-95.90831065 106.35152083 -98.58508457 107.9507954 -101.25390625 109.56640625 C-102.29260864 110.19482422 -102.29260864 110.19482422 -103.35229492 110.8359375 C-104.66001307 111.628934 -105.96627171 112.42434458 -107.27075195 113.22265625 C-113.60582541 117.06305738 -118.84730875 117.94893025 -126.12109375 116.609375 C-132.90430845 114.54664304 -136.86239873 109.53168906 -140.4375 103.625 C-141.74384644 97.52871663 -141.88535797 92.01854033 -139.125 86.3125 C-133.45386842 77.55703294 -122.41257969 72.74769714 -113.625 67.625 C-111.21328579 66.20967358 -108.80373603 64.79068674 -106.39453125 63.37109375 C-105.78073105 63.00975845 -105.16693085 62.64842316 -104.53453064 62.27613831 C-98.08924368 58.47545392 -91.69979664 54.58475065 -85.3125 50.6875 C-75.14704586 44.48914881 -64.93306249 38.37746829 -54.6875 32.3125 C-42.55237162 25.12865019 -30.48055604 17.84841908 -18.44775391 10.49414062 C-14.67971713 8.19408227 -10.9053038 5.90483375 -7.125 3.625 C-6.5055249 3.24907715 -5.8860498 2.8731543 -5.24780273 2.48583984 C-1.11616133 0 -1.11616133 0 0 0 Z " fill="#1BD309" transform="translate(500,290)"/>
<path d="M0 0 C0.99063034 12.16129515 1.57435123 24.32080177 1.26953125 36.5234375 C1.27318192 37.54555832 1.27683258 38.56767914 1.28059387 39.62077332 C1.05205127 45.37977927 0.11265388 48.54689175 -3.96630859 52.73071289 C-7.23902971 55.53339374 -10.1141682 57.43577873 -14.30859375 58.59765625 C-21.72530793 61.05945506 -27.91872002 64.90012414 -34.52008057 68.99353027 C-37.94242087 71.09890927 -41.40932727 73.12833309 -44.87109375 75.16796875 C-52.32119446 79.58032484 -59.73002957 84.05852166 -67.125 88.5625 C-76.58485102 94.31983856 -86.04958748 100.06863985 -95.53729248 105.77999878 C-96.87766596 106.58745049 -98.2173981 107.39596788 -99.55645752 108.20559692 C-101.41224965 109.32740004 -103.27026419 110.44542693 -105.12890625 111.5625 C-106.19181885 112.20316406 -107.25473145 112.84382813 -108.34985352 113.50390625 C-114.26644575 116.8440147 -120.36693282 116.7848873 -127 116 C-133.22219966 113.62359138 -137.30951151 109.37162552 -140.1875 103.42578125 C-142.10809765 97.69168922 -141.86221516 92.28467591 -139.4375 86.75 C-134.3627937 78.32166244 -125.25437952 73.96887711 -116.99975586 69.17236328 C-113.37430339 67.06532679 -109.76224311 64.93552229 -106.1484375 62.80859375 C-105.43455872 62.38923553 -104.72067993 61.96987732 -103.98516846 61.53781128 C-98.43783771 58.27397957 -92.95262115 54.91983836 -87.5 51.5 C-78.21386845 45.69207275 -68.80235981 40.10648722 -59.37600708 34.53057861 C-49.52716597 28.70365747 -39.71294478 22.8242468 -29.9375 16.875 C-28.77222555 16.16640814 -27.60694251 15.4578304 -26.44165039 14.74926758 C-22.41736397 12.30096658 -18.39356813 9.85189854 -14.37451172 7.39501953 C-12.21017308 6.07224472 -10.04300974 4.7542451 -7.875 3.4375 C-6.75867188 2.75558594 -5.64234375 2.07367187 -4.4921875 1.37109375 C-2 0 -2 0 0 0 Z " fill="#017BFE" transform="translate(500,6)"/>
<path d="M0 0 C2 2 2 2 3.8125 5.375 C6.28631627 9.76579566 9.1415811 12.15526414 13.75 14.25 C22.67528796 16.30968184 28.14184233 14.46758203 36 10 C37.20399408 9.38723164 38.41157116 8.78136635 39.625 8.1875 C40.40875 7.795625 41.1925 7.40375 42 7 C41.20083166 12.88105936 38.25050586 16.04882554 34 20 C28.06487759 23.72399837 21.81031719 23.53738466 15 23 C14.34 22.67 13.68 22.34 13 22 C10.59439727 21.84391977 8.21297228 21.74195542 5.8046875 21.68359375 C5.09724396 21.66281265 4.38980042 21.64203156 3.66091919 21.62062073 C1.39904575 21.55518922 -0.86294462 21.49627026 -3.125 21.4375 C-4.65756422 21.39430867 -6.19011657 21.35069418 -7.72265625 21.30664062 C-11.48165073 21.19951445 -15.24076292 21.0982291 -19 21 C-19 20.67 -19 20.34 -19 20 C-10.09 19.67 -1.18 19.34 8 19 C6.02 16.69 4.04 14.38 2 12 C0.44048023 7.8885388 -0.26595033 4.38818042 0 0 Z " fill="#FB841D" transform="translate(359,391)"/>
</svg>
